<!DOCTYPE svg PUBLIC "-//W3C//DTD SVG 1.1//EN" "http://www.w3.org/Graphics/SVG/1.1/DTD/svg11.dtd">
<!-- Uploaded to: SVG Repo, www.svgrepo.com, Transformed by: SVG Repo Mixer Tools -->
<svg fill="currentColor" height="800px" width="800px" version="1.1" id="Layer_1" xmlns="http://www.w3.org/2000/svg" xmlns:xlink="http://www.w3.org/1999/xlink" viewBox="-40.96 -40.96 593.92 593.92" xml:space="preserve" stroke="#FFD15C" stroke-width="0.00512">
<g id="SVGRepo_bgCarrier" stroke-width="0"/>
<g id="SVGRepo_tracerCarrier" stroke-linecap="round" stroke-linejoin="round"/>
<g id="SVGRepo_iconCarrier"> <g> <g> <path d="M320.781,139.628H191.219c-13.033,0-23.637,10.603-23.637,23.637v64.594c0,13.033,10.604,23.637,23.637,23.637h7.701 c4.248,0,7.69-3.443,7.69-7.69s-3.442-7.69-7.69-7.69h-7.701c-4.552,0-8.257-3.705-8.257-8.257v-64.594 c0-4.553,3.704-8.257,8.257-8.257h129.562c4.553,0,8.257,3.704,8.257,8.256v64.595c0,4.552-3.703,8.257-8.257,8.257h-91.175 c-4.248,0-7.69,3.443-7.69,7.69s3.442,7.69,7.69,7.69h91.175c13.033,0,23.637-10.604,23.637-23.637v-64.595 C344.417,150.232,333.814,139.628,320.781,139.628z"/> </g> </g> <g> <g> <path d="M433.463,149.827c-1.702-10.88-8.308-19.515-17.459-23.888c4.053-7.34,4.917-16.035,2.123-24.686 c-3.926-12.161-14.113-20.721-26.035-22.28c1.233-6.573,0.302-13.388-2.869-19.639c-5.577-10.997-16.869-18.101-28.767-18.101 c-1.86,0-3.713,0.174-5.541,0.518c-0.64-4.977-2.512-9.712-5.58-13.951c-6.093-8.42-16.334-13.649-26.728-13.649 c-5.249,0-10.194,1.265-14.61,3.677c-1.464-3.076-3.44-5.881-5.906-8.355C296.097,3.452,287.617,0,278.83,0 c-9.088,0-17.092,3.486-22.83,9.588C250.262,3.486,242.259,0,233.171,0c-8.789,0-17.269,3.451-23.264,9.47 c-2.464,2.474-4.441,5.281-5.905,8.357c-4.416-2.412-9.361-3.677-14.61-3.677c-10.394,0-20.635,5.229-26.727,13.648 c-3.068,4.239-4.939,8.974-5.58,13.951c-1.828-0.343-3.68-0.518-5.54-0.518c-11.899,0-23.191,7.106-28.768,18.101 c-3.171,6.253-4.103,13.067-2.869,19.64c-11.924,1.56-22.109,10.12-26.036,22.28c-2.793,8.651-1.93,17.346,2.125,24.686 c-9.153,4.373-15.758,13.008-17.461,23.887c-1.692,10.816,1.915,21.003,9.218,27.961c-7.999,7.5-10.634,18.281-9.269,27.715 c1.895,13.103,10.959,23.092,23.059,26.303c0.945,20.544,14.911,42.341,39.563,49.128c8.131,40.884,37.606,74.167,76.28,87.709 v21.274c-6.598,1.02-13.07,2.601-19.339,4.729c-0.01,0.003-0.022,0.005-0.032,0.009l-1.05,0.364 c-15.651,5.487-29.702,14.125-41.761,25.678c-3.068,2.938-3.172,7.806-0.235,10.873c2.937,3.067,7.805,3.171,10.873,0.235 c8.387-8.033,17.878-14.44,28.286-19.112c2.292,11.122,7.734,21.729,15.398,30.094c11.979,13.076,29.265,20.58,46.987,20.58 c21.348,0,42.003-11.182,53.574-29.146c0.687-1.066,10.672-20.289,8.831-21.05c18.606,7.693,34.654,23.556,44.649,40.787 c3.764,6.489,6.801,13.399,9.031,20.561c0.561,1.799,4.921,22.105,4.234,22.105c-0.149,0-241.665,0-241.665,0 c1.138-14.823,5.555-29.259,12.944-42.149c2.112-3.685,0.837-8.384-2.847-10.495c-3.683-2.112-8.384-0.837-10.495,2.847 c-9.994,17.436-15.276,37.314-15.276,57.487c0,4.247,3.442,7.69,7.69,7.69h257.636c4.248,0,7.69-3.443,7.69-7.69 c0-49.129-31.138-93.05-77.488-109.292c-6.601-2.313-13.439-4.021-20.406-5.102v-21.275 c38.673-13.543,68.146-46.824,76.278-87.708c24.65-6.786,38.614-28.582,39.56-49.127c12.102-3.209,21.168-13.199,23.064-26.304 c1.365-9.435-1.269-20.216-9.27-27.717C431.549,170.828,435.156,160.643,433.463,149.827z M116.98,226.867 c0.457-5.229,2.382-10.647,6.584-14.025c3.183-2.557,7.261-3.751,11.297-3.934c0.655-0.03,1.304-0.021,1.959-0.001v33.844 c0,4.203,0.685,8.412,2.006,12.402c0.01,0.03,0.018,0.06,0.029,0.09c0,2.878,0.002,5.757,0.145,8.633 C122.338,256.22,115.94,238.796,116.98,226.867z M304.169,407.71c-0.042,0.25-0.082,0.501-0.127,0.75 c-2.883,15.728-13.741,29.332-28.442,35.621c-5.937,2.54-12.56,3.902-19.088,3.902c-9.022,0-18.097-2.543-25.731-7.365 c-9.433-5.958-16.8-15.281-20.23-25.912c-0.189-0.586-2.059-7.188-1.737-7.276c5.52-1.498,11.209-2.527,16.98-3.068 c3.952-0.37,6.972-3.687,6.972-7.656v-23.83c2.081,0.418,4.177,0.814,6.284,1.082c5.536,0.806,11.194,1.23,16.949,1.23 c5.766,0,11.436-0.427,16.982-1.235c2.092-0.307,4.181-0.66,6.254-1.078v23.829c0,3.969,3.02,7.285,6.971,7.656 C292.308,404.934,298.328,406.057,304.169,407.71z M359.798,202.079v40.672c0,5.303-1.812,10.574-5.063,14.761 c-0.058,0.075-0.117,0.15-0.176,0.225c-4.502,5.679-11.633,9.14-18.886,9.14h-18.97c-4.248,0-7.69,3.443-7.69,7.69 c0,0.266,0.013,0.528,0.04,0.786c0.362,3.575,3.294,6.502,6.864,6.864c0.258,0.026,0.521,0.04,0.786,0.04h18.97 c7.155,0,14.281-1.982,20.401-5.688c-7.075,38.303-35.672,69.151-72.733,79.503c-0.251,0.07-0.502,0.138-0.754,0.207 c-27.895,7.55-58.629,2.597-82.703-13.388c-22.017-14.62-37.883-37.696-43.41-63.563c-0.196-0.917-0.379-1.836-0.55-2.758 c4.473,2.709,9.524,4.547,14.92,5.299c0.053,0.007,0.107,0.013,0.16,0.021c1.757,0.247,3.548,0.368,5.322,0.368h109.616 c0.266,0,0.528-0.013,0.786-0.04c3.499-0.353,6.499-3.268,6.864-6.864c0.027-0.258,0.04-0.521,0.04-0.786 c0-4.247-3.442-7.69-7.69-7.69H176.327c-12.944,0-24.125-11.169-24.125-24.125V202.08v-53.706c0-10.775,7.103-19.921,16.87-23.009 c0.045-0.014,0.09-0.029,0.134-0.043c2.3-0.716,4.712-1.074,7.12-1.074h159.346c2.4,0,4.822,0.356,7.116,1.071 c0.05,0.015,0.099,0.033,0.15,0.048c8.256,2.614,14.606,9.554,16.37,18.15c0.322,1.569,0.491,3.193,0.491,4.856V202.079z M180.446,108.868v-0.001c10.478-10.128,24.651-15.984,39.356-15.984c8.838,0,17.308,2.038,25.173,6.059 c4.01,2.051,6.141,3.738,6.142,3.738c2.807,2.31,6.892,2.304,9.732,0.031c0.022-0.017,2.151-1.709,6.179-3.768 c7.865-4.02,16.335-6.059,25.173-6.059c14.703,0,28.876,5.856,39.354,15.984H180.446z M372.999,263.877 c0.098-2,0.143-4.002,0.145-6.005c0.001-0.754-0.236-1.913,0-2.625c0.011-0.033,0.021-0.066,0.031-0.099 c1.313-3.988,2.004-8.198,2.004-12.397v-33.844c0.289-0.008,0.584-0.024,0.868-0.024c0.372,0,0.733,0.011,1.091,0.025 c3.948,0.18,10.407,1.452,14.423,7.317c0.039,0.059,0.081,0.117,0.12,0.175c0.019,0.029,0.038,0.062,0.057,0.09 c2.018,3.157,2.852,6.722,3.181,9.5c0.034,0.291,0.071,0.577,0.097,0.878C396.056,238.797,389.659,256.22,372.999,263.877z M406.954,185.192c9.847,3.159,12.264,11.729,11.341,18.11c-0.718,4.966-3.711,10.627-9.788,13.038 c-3.987-12.358-13.656-20.562-26.67-22.425c-0.027-0.003-0.053-0.008-0.08-0.012c-2.175-0.326-4.38-0.433-6.579-0.391v-45.138 c0-14.778-8.161-27.678-20.208-34.453c-1.701-2.69-3.458-5.258-5.248-7.641c-13.533-18.018-35.038-28.776-57.524-28.776 c-11.136,0-22.262,2.678-32.173,7.744c-1.536,0.784-2.88,1.54-4.026,2.228c-1.147-0.688-2.491-1.444-4.026-2.228 c-9.912-5.066-21.038-7.744-32.173-7.744c-22.487,0-43.99,10.758-57.525,28.776c-1.791,2.385-3.55,4.953-5.25,7.643 c-12.046,6.774-20.205,19.674-20.205,34.451v45.138c-0.117-0.002-0.229,0.006-0.345,0.005 c-10.093-0.087-20.344,3.639-26.926,11.604c-1.35,1.633-2.532,3.403-3.536,5.269c-0.261,0.486-2.787,5.844-2.523,5.948 c-6.073-2.414-9.066-8.073-9.783-13.036c-0.923-6.38,1.494-14.951,11.341-18.11c3.183-1.021,5.341-3.98,5.341-7.323 c0-3.343-2.158-6.302-5.341-7.323c-9.971-3.198-12.328-11.88-11.318-18.343c1.012-6.467,5.904-14.017,16.47-14.016 c3.33,0,6.284-2.144,7.314-5.313c1.034-3.18-0.106-6.661-2.817-8.615c-9.102-6.561-7.039-15.651-6.19-18.281 c1.909-5.914,7.391-11.881,15.334-11.881c1.85,0,3.778,0.325,5.732,0.968c3.175,1.045,6.661-0.082,8.625-2.786 c1.964-2.704,1.956-6.366-0.018-9.063c-5.281-7.211-3.324-13.701-1.688-16.928c2.935-5.789,8.984-9.677,15.051-9.677 c3.391,0,6.688,1.157,9.805,3.439c2.695,1.975,6.358,1.982,9.063,0.017c2.705-1.965,3.83-5.45,2.785-8.625 c-2.237-6.797-0.187-11.706,1.928-14.627c3.252-4.493,8.719-7.284,14.268-7.284c3.614,0,8.804,1.22,12.997,7.037 c1.954,2.712,5.439,3.85,8.614,2.818c3.18-1.033,5.326-4,5.314-7.342c-0.018-4.769,1.491-8.711,4.486-11.717 c3.13-3.143,7.638-4.945,12.368-4.945c2.769,0,12.072,0.833,15.506,11.535c1.02,3.183,3.98,5.341,7.323,5.341 c3.343,0,6.302-2.158,7.323-5.341c3.433-10.703,12.737-11.535,15.507-11.535c4.728,0,9.236,1.803,12.368,4.945 c2.995,3.006,4.504,6.948,4.486,11.716c-0.012,3.343,2.135,6.31,5.314,7.342c3.177,1.032,6.661-0.106,8.614-2.818 c4.194-5.817,9.382-7.037,12.997-7.037c5.548,0,11.015,2.792,14.268,7.285c2.114,2.922,4.165,7.831,1.929,14.626 c-1.045,3.175,0.08,6.661,2.785,8.625c2.704,1.965,6.367,1.958,9.063-0.017c3.116-2.281,6.415-3.439,9.805-3.439 c6.066,0,12.113,3.889,15.05,9.678c1.636,3.227,3.594,9.717-1.687,16.928c-1.975,2.697-1.982,6.36-0.017,9.064 c1.965,2.704,5.449,3.83,8.625,2.784c1.952-0.643,3.881-0.968,5.731-0.968c7.941,0,13.423,5.966,15.332,11.881 c0.849,2.63,2.912,11.721-6.189,18.281c-2.712,1.954-3.809,5.435-2.776,8.615c1.029,3.169,4.023,5.313,7.383,5.313 c10.454,0,15.346,7.552,16.357,14.018c1.011,6.463-1.345,15.145-11.314,18.342c-3.183,1.021-5.341,3.98-5.341,7.323 C401.613,181.211,403.772,184.17,406.954,185.192z"/> </g> </g> <g> <g> <path d="M256,288.093c-16.292,0-29.544,14.039-29.544,31.294c0,2.079,0.194,4.159,0.577,6.181c0,0.002,0.001,0.004,0.002,0.006 c2.755,14.549,14.936,25.107,28.966,25.107c14.03,0,26.211-10.559,28.966-25.107c0-0.002,0.001-0.004,0.002-0.006 c0.383-2.025,0.577-4.104,0.577-6.181C285.545,302.132,272.291,288.093,256,288.093z M256,335.302 c-4.127,0-7.938-2.042-10.565-5.337c0.079-0.009,0.157-0.021,0.236-0.031c6.842-0.825,13.815-0.814,20.66,0 c0.079,0.009,0.157,0.022,0.236,0.031C263.938,333.26,260.127,335.302,256,335.302z M268.873,314.758 c-4.267-0.54-8.572-0.809-12.873-0.809c-4.533,0-9.083,0.281-13.576,0.891c1.745-6.566,7.171-11.367,13.576-11.367 c6.405,0,11.83,4.801,13.576,11.367C269.344,314.809,269.107,314.787,268.873,314.758z"/> </g> </g> </g>


  <defs>
    <linearGradient id="paint0_linear" gradientUnits="userSpaceOnUse"
                    x1="-40.96"  y1="-40.96"
                    x2="552.96"  y2="552.96">
      <stop offset="0.259336" stop-color="#FFDB6E"/>
      <stop offset="1"        stop-color="#FFBC5E"/>
    </linearGradient>
  </defs>

</svg>