<svg width="40" height="40" viewBox="0 0 40 40" fill="none" xmlns="http://www.w3.org/2000/svg">
  <defs>
    <linearGradient id="aiGrad" x1="0" y1="0" x2="40" y2="40" gradientUnits="userSpaceOnUse">
      <stop offset="0.259336" stop-color="#FFDB6E"/>
      <stop offset="1" stop-color="#FFBC5E"/>
    </linearGradient>
  </defs>

  <g stroke="url(#aiGrad)" stroke-width="1.4" stroke-linecap="round" opacity="0.55">
    <line x1="5"  y1="11" x2="20" y2="6"/>
    <line x1="5"  y1="11" x2="20" y2="20"/>
    <line x1="5"  y1="11" x2="20" y2="34"/>
    <line x1="5"  y1="29" x2="20" y2="6"/>
    <line x1="5"  y1="29" x2="20" y2="20"/>
    <line x1="5"  y1="29" x2="20" y2="34"/>
    <line x1="20" y1="6"  x2="35" y2="11"/>
    <line x1="20" y1="6"  x2="35" y2="29"/>
    <line x1="20" y1="20" x2="35" y2="11"/>
    <line x1="20" y1="20" x2="35" y2="29"/>
    <line x1="20" y1="34" x2="35" y2="11"/>
    <line x1="20" y1="34" x2="35" y2="29"/>
  </g>

  <circle cx="20" cy="20" r="7.5" fill="none" stroke="url(#aiGrad)" stroke-width="0.9" stroke-dasharray="1.6 1.8" opacity="0.55"/>

  <g fill="url(#aiGrad)">
    <circle cx="5"  cy="11" r="3.2"/>
    <circle cx="5"  cy="29" r="3.2"/>
    <circle cx="20" cy="6"  r="3.2"/>
    <circle cx="20" cy="20" r="5"/>
    <circle cx="20" cy="34" r="3.2"/>
    <circle cx="35" cy="11" r="3.2"/>
    <circle cx="35" cy="29" r="3.2"/>
  </g>
</svg>
