<svg xmlns="http://www.w3.org/2000/svg" viewBox="0 0 1200 900" preserveAspectRatio="xMidYMid slice">
<g fill="none" stroke="#fff" stroke-linecap="round" stroke-linejoin="round">
<path d="M-40.0 185.5 Q-27.6 198.6 -21.6 205.2 Q-15.5 211.9 -9.5 218.6 Q-3.6 225.3 2.3 232.1 Q8.2 238.9 14.0 245.8 Q19.8 252.7 25.6 259.6 Q31.3 266.6 36.9 273.6 Q42.6 280.6 48.2 287.6 Q53.8 294.6 59.4 301.7 Q64.9 308.8 70.5 315.9 Q76.0 323.0 81.5 330.2 Q87.0 337.3 92.4 344.5 Q97.9 351.6 103.3 358.8 Q108.7 366.0 114.2 373.1 Q119.6 380.3 125.0 387.5 Q130.4 394.7 135.8 401.9 Q141.2 409.1 146.6 416.3 Q152.1 423.5 157.5 430.7 Q162.9 437.8 168.3 445.0 Q173.7 452.2 179.2 459.4 Q184.6 466.5 190.1 473.7 Q195.5 480.9 201.0 488.0 Q206.5 495.1 212.0 502.3 Q217.5 509.4 223.0 516.5 Q228.5 523.6 234.1 530.7 Q239.6 537.8 245.2 544.9 Q250.7 551.9 256.3 559.0 Q261.9 566.0 267.5 573.1 Q273.2 580.1 278.8 587.1 Q284.5 594.1 290.2 601.1 Q295.8 608.1 301.5 615.0 Q307.3 622.0 313.0 628.9 Q318.7 635.8 324.5 642.7 Q330.3 649.7 336.1 656.5 Q341.9 663.4 347.7 670.3 Q353.5 677.1 359.4 684.0 Q365.2 690.8 371.1 697.6 Q377.0 704.4 382.9 711.2 Q388.9 718.0 394.8 724.7 Q400.8 731.5 406.7 738.2 Q412.7 744.9 418.7 751.6 Q424.7 758.3 430.8 765.0 Q436.8 771.7 442.9 778.3 Q449.0 785.0 455.1 791.6 Q461.2 798.2 467.3 804.8 Q473.4 811.4 479.6 817.9 Q485.8 824.5 492.0 831.0 Q498.2 837.5 504.4 844.0 Q510.6 850.5 516.9 857.0 Q523.1 863.5 529.4 869.9 Q535.7 876.3 542.0 882.7 Q548.4 889.1 554.7 895.5 Q561.1 901.9 567.5 908.2 Q573.9 914.5 580.3 920.8 Q586.8 927.1 593.2 933.4 Q599.7 939.6 606.2 945.8 T612.7 952.0" stroke-width="1.10"/>
<path d="M-40.0 621.2 Q-23.6 628.6 -15.5 632.5 Q-7.4 636.4 0.6 640.5 Q8.7 644.6 16.6 648.8 Q24.5 653.1 32.4 657.5 Q40.2 661.9 48.0 666.5 Q55.7 671.0 63.4 675.8 Q71.1 680.5 78.6 685.3 Q86.2 690.2 93.7 695.2 Q101.2 700.2 108.6 705.3 Q116.0 710.4 123.3 715.7 Q130.6 720.9 137.8 726.3 Q145.1 731.6 152.2 737.1 Q159.3 742.6 166.4 748.2 Q173.5 753.8 180.4 759.4 Q187.4 765.1 194.3 770.9 Q201.2 776.7 208.1 782.5 Q214.9 788.4 221.6 794.4 Q228.4 800.3 235.0 806.4 Q241.7 812.4 248.3 818.5 Q254.9 824.6 261.4 830.8 Q268.0 837.0 274.4 843.3 Q280.9 849.6 287.3 855.9 Q293.7 862.3 300.0 868.7 Q306.3 875.1 312.5 881.5 Q318.8 888.0 325.0 894.6 Q331.2 901.1 337.3 907.7 Q343.4 914.3 349.4 921.0 Q355.5 927.7 361.5 934.4 Q367.4 941.1 373.3 947.9 T379.3 954.7" stroke-width="1.23"/>
<path d="M-40.0 110.4 Q-28.0 123.8 -22.1 130.6 Q-16.3 137.4 -10.5 144.4 Q-4.8 151.3 0.8 158.3 Q6.4 165.4 12.0 172.5 Q17.5 179.6 22.9 186.8 Q28.3 194.0 33.6 201.2 Q38.9 208.5 44.2 215.8 Q49.4 223.1 54.6 230.5 Q59.8 237.9 64.9 245.3 Q70.0 252.7 75.1 260.1 Q80.1 267.5 85.2 275.0 Q90.2 282.4 95.2 289.9 Q100.2 297.4 105.2 304.9 Q110.2 312.4 115.2 319.9 Q120.1 327.4 125.1 334.9 Q130.1 342.4 135.1 349.9 Q140.0 357.4 145.0 364.9 Q150.0 372.4 155.0 379.9 Q160.0 387.4 165.0 394.9 Q170.0 402.3 175.0 409.8 Q180.1 417.2 185.1 424.7 Q190.2 432.1 195.3 439.5 Q200.4 447.0 205.5 454.4 Q210.7 461.7 215.8 469.1 Q221.0 476.5 226.2 483.8 Q231.4 491.2 236.6 498.5 Q241.9 505.8 247.2 513.1 Q252.5 520.4 257.8 527.6 Q263.1 534.9 268.5 542.1 Q273.9 549.3 279.3 556.5 Q284.7 563.7 290.1 570.8 Q295.6 578.0 301.1 585.1 Q306.6 592.3 312.2 599.3 Q317.7 606.4 323.3 613.5 Q328.9 620.5 334.5 627.6 Q340.1 634.6 345.8 641.6 Q351.5 648.6 357.2 655.5 Q362.9 662.5 368.7 669.4 Q374.4 676.3 380.2 683.2 Q386.0 690.0 391.9 696.9 Q397.7 703.7 403.6 710.5 Q409.5 717.4 415.4 724.1 Q421.3 730.9 427.3 737.6 Q433.3 744.4 439.3 751.1 Q445.3 757.8 451.3 764.5 Q457.4 771.1 463.5 777.8 Q469.5 784.4 475.7 791.0 Q481.8 797.6 488.0 804.1 Q494.1 810.7 500.3 817.2 Q506.6 823.7 512.8 830.2 Q519.1 836.7 525.3 843.1 Q531.6 849.5 538.0 855.9 Q544.3 862.3 550.7 868.7 Q557.1 875.0 563.5 881.3 Q569.9 887.6 576.4 893.9 Q582.8 900.2 589.4 906.4 Q595.9 912.6 602.4 918.7 Q609.0 924.9 615.6 931.0 Q622.2 937.1 628.9 943.2 T635.5 949.2" stroke-width="0.73"/>
<path d="M-40.0 70.8 Q-28.0 84.3 -22.2 91.1 Q-16.4 98.0 -10.7 105.0 Q-5.0 111.9 0.6 119.0 Q6.1 126.1 11.5 133.3 Q16.9 140.5 22.2 147.8 Q27.5 155.0 32.7 162.4 Q37.9 169.8 43.0 177.2 Q48.1 184.6 53.1 192.1 Q58.1 199.5 63.1 207.1 Q68.0 214.6 72.9 222.2 Q77.7 229.7 82.6 237.3 Q87.4 244.9 92.2 252.5 Q97.0 260.2 101.7 267.8 Q106.5 275.4 111.2 283.1 Q116.0 290.7 120.7 298.4 Q125.4 306.0 130.2 313.7 Q134.9 321.3 139.6 329.0 Q144.4 336.7 149.1 344.3 Q153.9 351.9 158.7 359.6 Q163.4 367.2 168.2 374.8 Q173.0 382.4 177.8 390.0 Q182.7 397.6 187.5 405.2 Q192.4 412.8 197.3 420.3 Q202.2 427.9 207.1 435.4 Q212.0 442.9 217.0 450.4 Q222.0 457.9 227.0 465.4 Q232.1 472.9 237.1 480.3 Q242.2 487.7 247.3 495.1 Q252.5 502.5 257.6 509.9 Q262.8 517.3 268.0 524.6 Q273.3 531.9 278.5 539.2 Q283.8 546.5 289.1 553.8 Q294.5 561.0 299.8 568.2 Q305.2 575.4 310.6 582.6 Q316.1 589.8 321.5 596.9 Q327.0 604.1 332.6 611.2 Q338.1 618.3 343.7 625.3 Q349.2 632.4 354.9 639.4 Q360.5 646.4 366.2 653.4 Q371.9 660.4 377.6 667.4 Q383.3 674.3 389.1 681.2 Q394.8 688.1 400.7 695.0 Q406.5 701.8 412.4 708.7 Q418.2 715.5 424.1 722.3 Q430.0 729.1 436.0 735.8 Q442.0 742.6 448.0 749.3 Q454.0 756.0 460.0 762.6 Q466.1 769.3 472.2 775.9 Q478.3 782.5 484.4 789.1 Q490.5 795.7 496.7 802.2 Q502.9 808.8 509.1 815.3 Q515.4 821.8 521.6 828.2 Q527.9 834.7 534.2 841.1 Q540.6 847.5 546.9 853.8 Q553.3 860.2 559.7 866.5 Q566.1 872.8 572.6 879.1 Q579.1 885.3 585.6 891.5 Q592.1 897.7 598.7 903.9 Q605.2 910.1 611.9 916.1 Q618.5 922.2 625.2 928.3 Q631.8 934.3 638.6 940.3 Q645.3 946.3 652.1 952.2 T658.9 958.1" stroke-width="0.73"/>
<path d="M-40.0 672.4 Q-23.4 679.4 -15.2 683.1 Q-7.0 686.8 1.1 690.7 Q9.2 694.6 17.2 698.7 Q25.2 702.8 33.1 707.1 Q41.1 711.3 48.9 715.8 Q56.7 720.2 64.5 724.8 Q72.2 729.4 79.8 734.2 Q87.5 738.9 95.0 743.8 Q102.6 748.7 110.0 753.8 Q117.5 758.8 124.8 764.0 Q132.2 769.2 139.4 774.5 Q146.7 779.8 153.9 785.3 Q161.0 790.7 168.1 796.3 Q175.2 801.9 182.2 807.5 Q189.2 813.2 196.0 819.0 Q202.9 824.8 209.7 830.7 Q216.5 836.6 223.3 842.6 Q230.0 848.6 236.6 854.7 Q243.2 860.8 249.7 867.0 Q256.3 873.1 262.7 879.4 Q269.2 885.7 275.5 892.1 Q281.9 898.4 288.2 904.9 Q294.5 911.3 300.7 917.9 Q306.8 924.4 313.0 931.0 Q319.1 937.6 325.1 944.3 T331.1 951.0" stroke-width="0.65"/>
<path d="M-40.0 464.6 Q-24.7 474.1 -17.2 479.0 Q-9.6 483.9 -2.2 488.9 Q5.3 494.0 12.7 499.1 Q20.1 504.2 27.4 509.5 Q34.7 514.7 42.0 520.1 Q49.2 525.4 56.4 530.9 Q63.5 536.3 70.6 541.8 Q77.7 547.4 84.8 553.0 Q91.8 558.6 98.8 564.3 Q105.7 570.0 112.6 575.8 Q119.5 581.6 126.4 587.4 Q133.2 593.2 140.0 599.2 Q146.8 605.1 153.5 611.0 Q160.3 617.0 167.0 623.0 Q173.6 629.0 180.3 635.1 Q186.9 641.2 193.5 647.3 Q200.1 653.4 206.7 659.6 Q213.2 665.8 219.7 672.0 Q226.2 678.2 232.7 684.5 Q239.2 690.7 245.6 697.0 Q252.1 703.3 258.5 709.6 Q264.9 715.9 271.3 722.3 Q277.6 728.6 284.0 735.0 Q290.3 741.4 296.6 747.8 Q302.9 754.2 309.2 760.7 Q315.5 767.1 321.8 773.6 Q328.0 780.1 334.2 786.6 Q340.5 793.1 346.7 799.6 Q352.9 806.1 359.1 812.6 Q365.3 819.2 371.4 825.7 Q377.6 832.3 383.7 838.9 Q389.9 845.5 396.0 852.1 Q402.1 858.7 408.2 865.3 Q414.3 871.9 420.4 878.5 Q426.4 885.2 432.5 891.8 Q438.6 898.5 444.6 905.2 Q450.6 911.8 456.7 918.5 Q462.7 925.2 468.7 931.9 Q474.7 938.6 480.7 945.3 T486.6 952.1" stroke-width="0.72"/>
<path d="M-40.0 222.0 Q-27.4 234.8 -21.1 241.3 Q-14.9 247.8 -8.8 254.4 Q-2.6 261.0 3.4 267.6 Q9.5 274.3 15.5 281.0 Q21.5 287.7 27.4 294.5 Q33.3 301.3 39.2 308.1 Q45.0 315.0 50.8 321.8 Q56.7 328.7 62.4 335.6 Q68.2 342.5 73.9 349.5 Q79.6 356.4 85.3 363.4 Q91.0 370.4 96.7 377.3 Q102.4 384.3 108.0 391.3 Q113.6 398.4 119.3 405.4 Q124.9 412.4 130.5 419.4 Q136.1 426.5 141.8 433.5 Q147.4 440.5 153.0 447.6 Q158.6 454.6 164.2 461.6 Q169.8 468.7 175.4 475.7 Q181.1 482.7 186.7 489.8 Q192.3 496.8 198.0 503.8 Q203.6 510.8 209.2 517.8 Q214.9 524.8 220.6 531.8 Q226.2 538.8 231.9 545.8 Q237.6 552.8 243.3 559.7 Q249.0 566.7 254.7 573.7 Q260.4 580.6 266.1 587.5 Q271.9 594.5 277.6 601.4 Q283.4 608.3 289.2 615.2 Q295.0 622.1 300.8 629.0 Q306.6 635.9 312.4 642.7 Q318.2 649.6 324.1 656.4 Q329.9 663.3 335.8 670.1 Q341.7 676.9 347.6 683.7 Q353.5 690.5 359.4 697.3 Q365.3 704.1 371.2 710.8 Q377.2 717.6 383.1 724.3 Q389.1 731.1 395.1 737.8 Q401.1 744.5 407.1 751.2 Q413.1 757.9 419.2 764.5 Q425.2 771.2 431.3 777.9 Q437.4 784.5 443.4 791.1 Q449.5 797.8 455.7 804.4 Q461.8 811.0 467.9 817.5 Q474.1 824.1 480.2 830.7 Q486.4 837.2 492.6 843.7 Q498.8 850.3 505.0 856.8 Q511.2 863.3 517.5 869.7 Q523.8 876.2 530.0 882.7 Q536.3 889.1 542.6 895.5 Q548.9 901.9 555.3 908.3 Q561.6 914.7 568.0 921.1 Q574.4 927.4 580.8 933.7 Q587.2 940.1 593.6 946.3 T600.1 952.6" stroke-width="0.90"/>
<path d="M-40.0 778.6 Q-23.3 785.4 -15.1 789.1 Q-6.9 792.7 1.3 796.5 Q9.4 800.4 17.4 804.4 Q25.5 808.5 33.4 812.7 Q41.3 817.0 49.2 821.4 Q57.0 825.9 64.7 830.5 Q72.4 835.1 80.0 840.0 Q87.6 844.8 95.1 849.8 Q102.6 854.7 110.0 859.9 Q117.4 865.1 124.6 870.4 Q131.9 875.7 139.0 881.2 Q146.2 886.7 153.2 892.3 Q160.2 897.9 167.1 903.7 Q174.0 909.5 180.8 915.4 Q187.6 921.3 194.2 927.4 Q200.9 933.4 207.4 939.6 Q214.0 945.8 220.4 952.1 T226.8 958.4" stroke-width="1.04"/>
<path d="M-40.0 -65.2 Q-27.2 -52.5 -21.0 -46.0 Q-14.9 -39.4 -8.9 -32.7 Q-3.0 -25.9 2.8 -19.0 Q8.5 -12.1 14.0 -5.0 Q19.6 2.1 24.9 9.4 Q30.2 16.7 35.3 24.1 Q40.4 31.5 45.4 39.0 Q50.3 46.5 55.1 54.1 Q59.9 61.8 64.5 69.5 Q69.1 77.2 73.6 85.0 Q78.1 92.8 82.4 100.7 Q86.8 108.6 91.0 116.5 Q95.3 124.5 99.4 132.4 Q103.6 140.4 107.6 148.5 Q111.7 156.5 115.7 164.5 Q119.7 172.6 123.7 180.7 Q127.6 188.8 131.5 196.9 Q135.4 205.0 139.3 213.1 Q143.2 221.2 147.1 229.3 Q151.0 237.4 154.9 245.6 Q158.8 253.7 162.7 261.8 Q166.6 269.9 170.5 278.0 Q174.4 286.1 178.4 294.2 Q182.3 302.3 186.3 310.3 Q190.3 318.4 194.4 326.4 Q198.4 334.5 202.5 342.5 Q206.6 350.5 210.8 358.5 Q214.9 366.5 219.1 374.4 Q223.4 382.4 227.6 390.3 Q231.9 398.2 236.3 406.1 Q240.7 413.9 245.1 421.8 Q249.5 429.6 254.0 437.4 Q258.5 445.2 263.1 452.9 Q267.7 460.7 272.4 468.4 Q277.0 476.1 281.8 483.7 Q286.5 491.4 291.3 499.0 Q296.1 506.6 301.0 514.1 Q305.9 521.7 310.9 529.2 Q315.9 536.7 320.9 544.1 Q326.0 551.6 331.1 559.0 Q336.2 566.4 341.4 573.7 Q346.6 581.1 351.9 588.4 Q357.2 595.6 362.5 602.9 Q367.9 610.1 373.3 617.3 Q378.7 624.5 384.2 631.6 Q389.7 638.8 395.3 645.8 Q400.8 652.9 406.5 659.9 Q412.1 667.0 417.8 673.9 Q423.5 680.9 429.2 687.8 Q435.0 694.7 440.8 701.6 Q446.6 708.5 452.5 715.3 Q458.4 722.1 464.3 728.9 Q470.3 735.6 476.3 742.3 Q482.3 749.0 488.4 755.7 Q494.4 762.3 500.6 768.9 Q506.7 775.5 512.9 782.0 Q519.1 788.5 525.3 795.0 Q531.6 801.5 537.9 807.9 Q544.2 814.3 550.6 820.6 Q557.0 827.0 563.4 833.3 Q569.9 839.6 576.4 845.8 Q582.9 852.0 589.4 858.2 Q596.0 864.3 602.6 870.4 Q609.3 876.5 616.0 882.5 Q622.7 888.5 629.4 894.4 Q636.2 900.4 643.0 906.2 Q649.9 912.1 656.8 917.9 Q663.7 923.7 670.6 929.3 Q677.6 935.0 684.7 940.6 Q691.7 946.2 698.8 951.7 T705.9 957.3" stroke-width="0.77"/>
<path d="M-40.0 70.4 Q-28.0 83.8 -22.2 90.7 Q-16.4 97.5 -10.7 104.5 Q-5.0 111.5 0.6 118.6 Q6.1 125.7 11.5 132.8 Q16.9 140.0 22.2 147.3 Q27.5 154.6 32.7 161.9 Q37.9 169.3 43.0 176.7 Q48.1 184.1 53.1 191.6 Q58.1 199.1 63.0 206.6 Q68.0 214.1 72.8 221.7 Q77.7 229.3 82.5 236.9 Q87.4 244.5 92.2 252.1 Q96.9 259.7 101.7 267.3 Q106.5 275.0 111.2 282.6 Q115.9 290.3 120.7 297.9 Q125.4 305.6 130.1 313.3 Q134.9 320.9 139.6 328.6 Q144.3 336.2 149.1 343.9 Q153.8 351.5 158.6 359.2 Q163.4 366.8 168.1 374.4 Q172.9 382.0 177.8 389.6 Q182.6 397.2 187.4 404.8 Q192.3 412.4 197.2 419.9 Q202.1 427.5 207.0 435.0 Q211.9 442.5 216.9 450.0 Q221.9 457.5 226.9 465.0 Q231.9 472.5 237.0 479.9 Q242.1 487.3 247.2 494.7 Q252.3 502.1 257.5 509.5 Q262.7 516.9 267.9 524.2 Q273.1 531.5 278.4 538.8 Q283.7 546.1 289.0 553.4 Q294.3 560.6 299.7 567.9 Q305.1 575.1 310.5 582.3 Q315.9 589.4 321.4 596.6 Q326.9 603.7 332.4 610.8 Q337.9 617.9 343.5 625.0 Q349.1 632.0 354.7 639.1 Q360.3 646.1 366.0 653.1 Q371.7 660.1 377.4 667.0 Q383.1 674.0 388.9 680.9 Q394.7 687.8 400.5 694.6 Q406.3 701.5 412.2 708.3 Q418.0 715.2 424.0 721.9 Q429.9 728.7 435.8 735.5 Q441.8 742.2 447.8 748.9 Q453.8 755.6 459.8 762.3 Q465.9 769.0 472.0 775.6 Q478.1 782.2 484.2 788.8 Q490.3 795.4 496.5 801.9 Q502.7 808.5 508.9 815.0 Q515.2 821.4 521.4 827.9 Q527.7 834.4 534.0 840.8 Q540.4 847.2 546.7 853.5 Q553.1 859.9 559.5 866.2 Q565.9 872.5 572.4 878.8 Q578.9 885.0 585.4 891.2 Q591.9 897.4 598.5 903.6 Q605.0 909.7 611.7 915.8 Q618.3 921.9 625.0 928.0 Q631.6 934.0 638.4 940.0 Q645.1 946.0 651.9 951.9 T658.7 957.8" stroke-width="1.25"/>
<path d="M-40.0 750.0 Q-23.3 756.8 -15.1 760.4 Q-6.8 764.0 1.3 767.8 Q9.5 771.6 17.5 775.7 Q25.6 779.7 33.5 783.9 Q41.5 788.1 49.3 792.5 Q57.2 796.9 64.9 801.5 Q72.7 806.1 80.3 810.8 Q87.9 815.6 95.5 820.5 Q103.0 825.4 110.4 830.5 Q117.8 835.6 125.2 840.9 Q132.5 846.1 139.7 851.5 Q146.9 856.9 154.0 862.5 Q161.0 868.0 168.0 873.7 Q175.0 879.4 181.9 885.2 Q188.7 891.0 195.5 897.0 Q202.2 902.9 208.9 909.0 Q215.5 915.0 222.1 921.2 Q228.6 927.4 235.0 933.7 Q241.4 940.1 247.7 946.5 T254.0 952.9" stroke-width="1.19"/>
<path d="M-40.0 767.0 Q-23.3 773.8 -15.1 777.5 Q-6.9 781.1 1.3 784.9 Q9.4 788.7 17.5 792.8 Q25.5 796.8 33.5 801.0 Q41.4 805.3 49.2 809.7 Q57.1 814.1 64.8 818.7 Q72.5 823.3 80.2 828.1 Q87.8 832.9 95.3 837.9 Q102.8 842.8 110.2 848.0 Q117.6 853.1 124.9 858.4 Q132.2 863.7 139.3 869.1 Q146.5 874.5 153.6 880.1 Q160.6 885.7 167.5 891.5 Q174.5 897.2 181.3 903.1 Q188.1 908.9 194.8 914.9 Q201.5 921.0 208.1 927.1 Q214.7 933.2 221.2 939.5 Q227.6 945.7 234.0 952.1 T240.3 958.5" stroke-width="1.15"/>
<path d="M-40.0 733.6 Q-23.3 740.4 -15.1 744.0 Q-6.8 747.6 1.3 751.5 Q9.5 755.3 17.5 759.3 Q25.6 763.3 33.5 767.5 Q41.5 771.7 49.3 776.1 Q57.2 780.5 64.9 785.1 Q72.7 789.6 80.3 794.4 Q88.0 799.1 95.5 804.0 Q103.1 808.9 110.5 814.0 Q118.0 819.1 125.3 824.3 Q132.6 829.5 139.9 834.9 Q147.1 840.2 154.2 845.7 Q161.3 851.2 168.3 856.9 Q175.3 862.5 182.2 868.3 Q189.1 874.1 195.9 880.0 Q202.7 885.9 209.4 891.9 Q216.1 897.9 222.7 904.1 Q229.3 910.2 235.8 916.4 Q242.2 922.7 248.6 929.1 Q255.0 935.4 261.2 941.9 T267.5 948.3" stroke-width="0.76"/>
<path d="M-40.0 791.2 Q-23.4 798.1 -15.1 801.7 Q-6.9 805.4 1.2 809.2 Q9.3 813.1 17.4 817.2 Q25.4 821.3 33.3 825.5 Q41.2 829.8 49.0 834.3 Q56.8 838.8 64.5 843.4 Q72.2 848.1 79.8 852.9 Q87.4 857.8 94.9 862.8 Q102.3 867.8 109.7 873.0 Q117.0 878.2 124.3 883.6 Q131.5 888.9 138.6 894.5 Q145.7 900.0 152.7 905.7 Q159.7 911.3 166.5 917.2 Q173.4 923.0 180.1 928.9 Q186.9 934.9 193.5 941.0 Q200.1 947.1 206.6 953.4 T213.1 959.6" stroke-width="0.94"/>
<path d="M-40.0 693.9 Q-23.4 700.8 -15.2 704.5 Q-6.9 708.1 1.2 712.0 Q9.3 715.8 17.4 719.9 Q25.4 723.9 33.3 728.2 Q41.3 732.4 49.1 736.8 Q57.0 741.2 64.7 745.8 Q72.5 750.3 80.1 755.1 Q87.8 759.8 95.4 764.7 Q102.9 769.6 110.4 774.6 Q117.8 779.7 125.2 784.9 Q132.5 790.0 139.8 795.4 Q147.0 800.7 154.2 806.1 Q161.4 811.6 168.4 817.2 Q175.5 822.8 182.5 828.5 Q189.4 834.2 196.3 840.0 Q203.2 845.8 209.9 851.7 Q216.7 857.6 223.4 863.7 Q230.1 869.7 236.6 875.8 Q243.2 882.0 249.7 888.2 Q256.2 894.5 262.6 900.8 Q269.0 907.1 275.3 913.5 Q281.6 920.0 287.8 926.5 Q294.0 933.0 300.1 939.6 Q306.3 946.2 312.3 952.9 T318.3 959.6" stroke-width="1.00"/>
<path d="M312.3 -40.0 Q315.4 -22.3 316.8 -13.4 Q318.2 -4.5 319.5 4.4 Q320.9 13.3 322.1 22.2 Q323.3 31.1 324.5 40.1 Q325.7 49.0 326.8 57.9 Q327.9 66.8 329.1 75.8 Q330.2 84.7 331.3 93.6 Q332.4 102.6 333.5 111.5 Q334.6 120.4 335.7 129.4 Q336.9 138.3 338.1 147.2 Q339.3 156.1 340.5 165.0 Q341.8 173.9 343.1 182.8 Q344.4 191.7 345.9 200.6 Q347.3 209.5 348.8 218.4 Q350.4 227.3 352.0 236.1 Q353.7 245.0 355.4 253.8 Q357.2 262.6 359.1 271.4 Q361.0 280.2 363.1 288.9 Q365.2 297.7 367.4 306.4 Q369.6 315.2 372.0 323.8 Q374.3 332.5 376.9 341.2 Q379.4 349.8 382.1 358.4 Q384.8 367.0 387.7 375.5 Q390.6 384.0 393.7 392.5 Q396.7 400.9 399.9 409.3 Q403.2 417.7 406.6 426.1 Q410.0 434.4 413.6 442.7 Q417.1 450.9 420.9 459.1 Q424.6 467.3 428.6 475.4 Q432.5 483.5 436.6 491.5 Q440.7 499.5 444.9 507.4 Q449.2 515.4 453.6 523.2 Q458.0 531.0 462.6 538.8 Q467.2 546.5 472.0 554.2 Q476.7 561.8 481.6 569.4 Q486.5 576.9 491.5 584.4 Q496.6 591.8 501.8 599.2 Q507.0 606.5 512.3 613.8 Q517.7 621.0 523.1 628.2 Q528.6 635.3 534.2 642.3 Q539.9 649.4 545.6 656.3 Q551.4 663.2 557.3 670.0 Q563.1 676.8 569.2 683.5 Q575.2 690.2 581.3 696.8 Q587.5 703.3 593.8 709.8 Q600.0 716.2 606.4 722.6 Q612.8 728.9 619.4 735.1 Q625.9 741.3 632.5 747.3 Q639.2 753.4 646.0 759.3 Q652.7 765.3 659.6 771.1 Q666.5 776.9 673.5 782.5 Q680.5 788.2 687.6 793.7 Q694.8 799.2 702.0 804.5 Q709.3 809.8 716.6 815.0 Q724.0 820.2 731.4 825.2 Q738.9 830.2 746.5 835.1 Q754.1 839.9 761.8 844.5 Q769.5 849.2 777.3 853.7 Q785.1 858.1 793.1 862.4 Q801.0 866.7 809.0 870.7 Q817.0 874.8 825.2 878.7 Q833.3 882.5 841.5 886.1 Q849.8 889.8 858.1 893.2 Q866.4 896.6 874.9 899.7 Q883.3 902.9 891.8 905.8 Q900.3 908.7 908.9 911.4 Q917.5 914.1 926.2 916.5 Q934.9 918.9 943.6 921.1 Q952.3 923.2 961.1 925.1 Q969.9 926.9 978.8 928.5 Q987.6 930.1 996.6 931.5 Q1005.5 932.8 1014.4 933.8 Q1023.3 934.9 1032.3 935.6 Q1041.3 936.4 1050.3 936.8 Q1059.2 937.3 1068.2 937.5 Q1077.2 937.7 1086.2 937.6 Q1095.2 937.5 1104.2 937.1 Q1113.2 936.7 1122.2 936.1 Q1131.2 935.4 1140.1 934.5 Q1149.1 933.6 1158.0 932.4 Q1166.9 931.2 1175.8 929.7 Q1184.7 928.3 1193.5 926.6 Q1202.4 924.9 1211.2 923.0 Q1220.0 921.1 1228.7 918.9 Q1237.4 916.7 1246.1 914.4 T1254.8 912.0" stroke-width="0.84"/>
<path d="M312.5 -40.0 Q315.6 -22.3 317.0 -13.4 Q318.4 -4.5 319.7 4.4 Q321.0 13.3 322.3 22.2 Q323.5 31.1 324.7 40.1 Q325.9 49.0 327.0 57.9 Q328.1 66.8 329.2 75.8 Q330.3 84.7 331.4 93.6 Q332.5 102.6 333.6 111.5 Q334.8 120.4 335.9 129.4 Q337.0 138.3 338.2 147.2 Q339.4 156.1 340.7 165.0 Q341.9 174.0 343.3 182.9 Q344.6 191.8 346.0 200.6 Q347.4 209.5 349.0 218.4 Q350.5 227.3 352.2 236.1 Q353.8 245.0 355.6 253.8 Q357.4 262.6 359.3 271.4 Q361.2 280.2 363.2 289.0 Q365.3 297.7 367.5 306.4 Q369.7 315.2 372.1 323.8 Q374.5 332.5 377.0 341.2 Q379.6 349.8 382.3 358.4 Q385.0 367.0 387.9 375.5 Q390.7 384.0 393.8 392.5 Q396.8 400.9 400.1 409.3 Q403.3 417.7 406.7 426.1 Q410.1 434.4 413.7 442.7 Q417.3 450.9 421.0 459.1 Q424.8 467.3 428.7 475.4 Q432.6 483.5 436.7 491.5 Q440.8 499.5 445.1 507.4 Q449.3 515.4 453.8 523.2 Q458.2 531.0 462.8 538.8 Q467.3 546.5 472.1 554.2 Q476.8 561.8 481.7 569.4 Q486.6 576.9 491.7 584.4 Q496.7 591.8 501.9 599.2 Q507.1 606.5 512.5 613.8 Q517.8 621.0 523.3 628.2 Q528.8 635.3 534.4 642.3 Q540.0 649.4 545.8 656.3 Q551.5 663.2 557.4 670.0 Q563.3 676.8 569.3 683.5 Q575.3 690.2 581.5 696.8 Q587.6 703.3 593.9 709.8 Q600.2 716.2 606.6 722.6 Q613.0 728.9 619.5 735.1 Q626.0 741.3 632.7 747.3 Q639.3 753.4 646.1 759.3 Q652.9 765.3 659.8 771.1 Q666.7 776.9 673.7 782.5 Q680.7 788.1 687.8 793.6 Q694.9 799.1 702.2 804.5 Q709.4 809.8 716.8 815.0 Q724.1 820.2 731.6 825.2 Q739.1 830.2 746.7 835.0 Q754.3 839.9 762.0 844.5 Q769.7 849.2 777.5 853.6 Q785.3 858.1 793.2 862.4 Q801.2 866.6 809.2 870.7 Q817.2 874.8 825.4 878.6 Q833.5 882.5 841.7 886.1 Q850.0 889.7 858.3 893.1 Q866.6 896.5 875.1 899.7 Q883.5 902.8 892.0 905.8 Q900.5 908.7 909.1 911.3 Q917.7 914.0 926.4 916.4 Q935.0 918.8 943.8 921.0 Q952.5 923.1 961.3 925.0 Q970.1 926.8 979.0 928.4 Q987.8 930.0 996.8 931.4 Q1005.7 932.7 1014.6 933.7 Q1023.5 934.7 1032.5 935.5 Q1041.5 936.2 1050.5 936.7 Q1059.4 937.2 1068.4 937.4 Q1077.4 937.5 1086.4 937.4 Q1095.4 937.3 1104.4 936.9 Q1113.4 936.6 1122.4 935.9 Q1131.4 935.3 1140.3 934.3 Q1149.3 933.4 1158.2 932.2 Q1167.1 931.0 1176.0 929.6 Q1184.9 928.1 1193.7 926.4 Q1202.6 924.7 1211.4 922.8 Q1220.1 920.8 1228.9 918.7 Q1237.6 916.5 1246.3 914.1 T1255.0 911.8" stroke-width="0.80"/>
<path d="M56.2 -40.0 Q66.2 -25.0 71.0 -17.4 Q75.7 -9.8 80.3 -2.0 Q84.9 5.8 89.2 13.6 Q93.6 21.5 97.8 29.5 Q102.0 37.4 106.0 45.5 Q110.1 53.5 114.0 61.6 Q117.9 69.7 121.6 77.9 Q125.4 86.1 129.1 94.3 Q132.7 102.5 136.3 110.8 Q139.9 119.1 143.4 127.3 Q146.9 135.6 150.3 144.0 Q153.7 152.3 157.1 160.6 Q160.5 168.9 163.9 177.3 Q167.3 185.6 170.6 194.0 Q174.0 202.3 177.3 210.7 Q180.7 219.0 184.1 227.4 Q187.5 235.7 190.9 244.0 Q194.3 252.4 197.7 260.7 Q201.2 269.0 204.6 277.3 Q208.1 285.6 211.7 293.9 Q215.2 302.1 218.8 310.4 Q222.4 318.6 226.1 326.8 Q229.8 335.1 233.6 343.2 Q237.3 351.4 241.2 359.6 Q245.0 367.7 248.9 375.8 Q252.8 383.9 256.9 391.9 Q260.9 400.0 265.0 408.0 Q269.1 416.0 273.3 424.0 Q277.5 431.9 281.8 439.9 Q286.1 447.8 290.5 455.6 Q294.9 463.5 299.3 471.3 Q303.8 479.1 308.4 486.8 Q313.0 494.6 317.7 502.3 Q322.3 510.0 327.1 517.6 Q331.9 525.2 336.7 532.8 Q341.6 540.4 346.6 547.9 Q351.5 555.4 356.6 562.8 Q361.6 570.3 366.7 577.7 Q371.9 585.1 377.1 592.4 Q382.3 599.8 387.6 607.0 Q392.9 614.3 398.3 621.5 Q403.7 628.7 409.1 635.9 Q414.6 643.0 420.2 650.1 Q425.7 657.2 431.3 664.2 Q437.0 671.2 442.7 678.2 Q448.4 685.2 454.1 692.1 Q459.9 699.0 465.8 705.8 Q471.6 712.6 477.6 719.4 Q483.5 726.2 489.5 732.9 Q495.5 739.6 501.5 746.3 Q507.6 752.9 513.8 759.5 Q519.9 766.1 526.1 772.6 Q532.3 779.1 538.6 785.5 Q544.9 792.0 551.3 798.3 Q557.6 804.7 564.0 811.0 Q570.5 817.3 577.0 823.5 Q583.5 829.8 590.0 835.9 Q596.6 842.1 603.2 848.1 Q609.9 854.2 616.6 860.2 Q623.3 866.2 630.1 872.1 Q636.9 878.0 643.8 883.8 Q650.6 889.6 657.6 895.4 Q664.5 901.1 671.5 906.7 Q678.6 912.3 685.7 917.9 Q692.8 923.4 699.9 928.8 Q707.1 934.3 714.4 939.6 Q721.6 944.9 729.0 950.1 T736.3 955.3" stroke-width="1.21"/>
<path d="M614.6 -40.0 Q615.3 -22.0 615.5 -13.0 Q615.8 -4.0 616.1 5.0 Q616.3 14.0 616.5 23.0 Q616.8 32.0 617.0 41.0 Q617.2 50.0 617.4 59.0 Q617.7 68.0 617.9 77.0 Q618.2 85.9 618.5 94.9 Q618.8 103.9 619.2 112.9 Q619.6 121.9 620.1 130.9 Q620.6 139.9 621.2 148.9 Q621.8 157.9 622.5 166.8 Q623.3 175.8 624.2 184.7 Q625.0 193.7 626.1 202.6 Q627.1 211.6 628.4 220.5 Q629.6 229.4 631.0 238.3 Q632.4 247.2 634.1 256.0 Q635.7 264.9 637.5 273.7 Q639.4 282.5 641.5 291.3 Q643.6 300.0 645.9 308.7 Q648.3 317.4 650.8 326.0 Q653.4 334.6 656.3 343.2 Q659.1 351.7 662.3 360.1 Q665.4 368.6 668.8 376.9 Q672.2 385.2 675.9 393.5 Q679.6 401.7 683.5 409.8 Q687.5 417.8 691.7 425.8 Q696.0 433.7 700.5 441.5 Q705.0 449.3 709.8 456.9 Q714.6 464.5 719.7 471.9 Q724.8 479.4 730.1 486.6 Q735.5 493.8 741.1 500.8 Q746.7 507.9 752.6 514.7 Q758.5 521.5 764.6 528.1 Q770.8 534.6 777.2 541.0 Q783.6 547.3 790.2 553.4 Q796.8 559.5 803.7 565.3 Q810.6 571.1 817.7 576.7 Q824.7 582.2 832.0 587.5 Q839.3 592.7 846.9 597.7 Q854.4 602.7 862.0 607.4 Q869.7 612.0 877.6 616.4 Q885.5 620.7 893.5 624.8 Q901.6 628.8 909.8 632.5 Q918.0 636.3 926.3 639.7 Q934.6 643.1 943.1 646.1 Q951.6 649.2 960.1 651.9 Q968.7 654.6 977.4 657.0 Q986.1 659.4 994.8 661.5 Q1003.6 663.5 1012.4 665.3 Q1021.3 667.0 1030.1 668.4 Q1039.0 669.8 1048.0 670.8 Q1056.9 671.9 1065.9 672.6 Q1074.8 673.4 1083.8 673.8 Q1092.8 674.3 1101.8 674.4 Q1110.8 674.5 1119.8 674.4 Q1128.8 674.2 1137.8 673.7 Q1146.8 673.3 1155.8 672.6 Q1164.7 671.9 1173.7 670.9 Q1182.6 669.9 1191.6 668.7 Q1200.5 667.5 1209.4 666.1 Q1218.2 664.6 1227.1 663.0 Q1235.9 661.3 1244.7 659.5 T1253.6 657.6" stroke-width="1.34"/>
<path d="M526.6 -40.0 Q527.1 -22.0 527.3 -13.0 Q527.4 -4.0 527.6 5.0 Q527.7 14.0 527.8 23.0 Q527.9 32.0 528.0 41.0 Q528.0 50.0 528.1 59.0 Q528.2 68.0 528.3 77.0 Q528.4 86.0 528.5 95.0 Q528.7 104.0 528.9 113.0 Q529.1 122.0 529.4 131.0 Q529.6 140.0 530.0 149.0 Q530.4 158.0 530.9 166.9 Q531.3 175.9 532.0 184.9 Q532.6 193.9 533.3 202.9 Q534.1 211.8 535.0 220.8 Q535.9 229.7 537.0 238.7 Q538.1 247.6 539.4 256.5 Q540.6 265.4 542.1 274.3 Q543.6 283.2 545.3 292.0 Q546.9 300.9 548.8 309.7 Q550.7 318.5 552.9 327.2 Q555.0 335.9 557.3 344.6 Q559.7 353.3 562.3 361.9 Q564.9 370.6 567.7 379.1 Q570.6 387.6 573.6 396.1 Q576.7 404.5 580.1 412.9 Q583.4 421.3 587.0 429.5 Q590.5 437.8 594.4 445.9 Q598.2 454.1 602.3 462.1 Q606.4 470.1 610.7 478.0 Q615.0 485.9 619.6 493.7 Q624.1 501.4 628.9 509.0 Q633.7 516.6 638.8 524.1 Q643.8 531.5 649.1 538.8 Q654.4 546.1 659.9 553.2 Q665.4 560.4 671.1 567.3 Q676.9 574.2 682.8 581.0 Q688.8 587.7 694.9 594.3 Q701.1 600.9 707.5 607.2 Q713.8 613.6 720.4 619.7 Q727.0 625.9 733.7 631.8 Q740.5 637.7 747.5 643.4 Q754.4 649.1 761.6 654.6 Q768.7 660.1 776.1 665.3 Q783.4 670.5 790.9 675.5 Q798.4 680.5 806.1 685.2 Q813.7 689.9 821.5 694.4 Q829.4 698.8 837.3 703.0 Q845.3 707.2 853.4 711.1 Q861.5 715.0 869.8 718.6 Q878.0 722.2 886.4 725.5 Q894.7 728.8 903.2 731.9 Q911.7 734.9 920.3 737.6 Q928.9 740.3 937.5 742.7 Q946.2 745.1 955.0 747.2 Q963.7 749.3 972.5 751.1 Q981.4 752.8 990.2 754.3 Q999.1 755.8 1008.1 756.9 Q1017.0 758.1 1025.9 758.9 Q1034.9 759.7 1043.9 760.2 Q1052.9 760.8 1061.9 761.0 Q1070.9 761.2 1079.9 761.1 Q1088.9 761.0 1097.9 760.6 Q1106.8 760.2 1115.8 759.6 Q1124.8 758.9 1133.8 758.0 Q1142.7 757.0 1151.6 755.8 Q1160.5 754.6 1169.4 753.2 Q1178.3 751.7 1187.1 750.0 Q1196.0 748.3 1204.8 746.4 Q1213.6 744.5 1222.3 742.3 Q1231.1 740.2 1239.7 737.9 T1248.4 735.5" stroke-width="0.99"/>
<path d="M573.7 -40.0 Q574.2 -22.0 574.4 -13.0 Q574.6 -4.0 574.7 5.0 Q574.9 14.0 575.0 23.0 Q575.1 32.0 575.2 41.0 Q575.3 50.0 575.4 59.0 Q575.6 68.0 575.7 77.0 Q575.8 86.0 576.0 95.0 Q576.2 104.0 576.5 113.0 Q576.7 122.0 577.1 131.0 Q577.4 140.0 577.8 148.9 Q578.3 157.9 578.9 166.9 Q579.4 175.9 580.1 184.9 Q580.8 193.8 581.7 202.8 Q582.5 211.8 583.6 220.7 Q584.6 229.6 585.8 238.6 Q587.0 247.5 588.4 256.4 Q589.8 265.3 591.5 274.1 Q593.1 283.0 594.9 291.8 Q596.8 300.6 598.8 309.3 Q600.9 318.1 603.2 326.8 Q605.5 335.5 608.1 344.1 Q610.7 352.7 613.5 361.3 Q616.3 369.8 619.4 378.3 Q622.4 386.8 625.8 395.1 Q629.1 403.5 632.7 411.7 Q636.3 420.0 640.2 428.1 Q644.1 436.2 648.2 444.2 Q652.4 452.2 656.8 460.0 Q661.2 467.9 665.8 475.6 Q670.5 483.3 675.4 490.8 Q680.4 498.3 685.5 505.7 Q690.7 513.1 696.2 520.2 Q701.6 527.4 707.3 534.4 Q713.0 541.4 718.9 548.1 Q724.8 554.9 731.0 561.4 Q737.2 568.0 743.6 574.3 Q750.0 580.7 756.6 586.8 Q763.2 592.9 770.0 598.7 Q776.9 604.6 783.9 610.2 Q791.0 615.8 798.2 621.1 Q805.5 626.5 812.9 631.5 Q820.3 636.6 827.9 641.4 Q835.6 646.2 843.3 650.7 Q851.1 655.2 859.1 659.4 Q867.0 663.6 875.1 667.5 Q883.2 671.5 891.5 675.1 Q899.7 678.7 908.1 682.0 Q916.5 685.3 925.0 688.2 Q933.5 691.2 942.1 693.9 Q950.7 696.5 959.4 698.8 Q968.1 701.2 976.8 703.2 Q985.6 705.2 994.5 706.9 Q1003.3 708.5 1012.2 709.9 Q1021.1 711.3 1030.0 712.3 Q1039.0 713.3 1047.9 714.0 Q1056.9 714.8 1065.9 715.2 Q1074.9 715.6 1083.9 715.7 Q1092.9 715.8 1101.9 715.6 Q1110.9 715.4 1119.9 714.9 Q1128.9 714.4 1137.8 713.6 Q1146.8 712.9 1155.7 711.9 Q1164.7 710.8 1173.6 709.6 Q1182.5 708.3 1191.4 706.8 Q1200.3 705.3 1209.1 703.5 Q1217.9 701.8 1226.7 699.8 Q1235.5 697.9 1244.2 695.8 T1253.0 693.6" stroke-width="0.66"/>
<path d="M515.0 -40.0 Q515.5 -22.0 515.7 -13.0 Q515.9 -4.0 516.1 5.0 Q516.2 14.0 516.3 23.0 Q516.4 32.0 516.5 41.0 Q516.6 50.0 516.7 59.0 Q516.8 68.0 516.9 77.0 Q517.0 86.0 517.1 95.0 Q517.3 104.0 517.5 113.0 Q517.7 122.0 518.0 131.0 Q518.2 140.0 518.6 149.0 Q519.0 158.0 519.5 166.9 Q519.9 175.9 520.6 184.9 Q521.2 193.9 521.9 202.9 Q522.7 211.8 523.6 220.8 Q524.5 229.7 525.5 238.7 Q526.6 247.6 527.9 256.5 Q529.1 265.4 530.6 274.3 Q532.1 283.2 533.7 292.0 Q535.4 300.9 537.2 309.7 Q539.1 318.5 541.2 327.2 Q543.3 336.0 545.6 344.7 Q547.9 353.4 550.5 362.0 Q553.1 370.6 555.9 379.2 Q558.7 387.7 561.7 396.2 Q564.7 404.7 568.0 413.1 Q571.3 421.4 574.8 429.7 Q578.4 438.0 582.1 446.2 Q585.9 454.4 589.9 462.4 Q593.9 470.5 598.2 478.4 Q602.4 486.3 606.9 494.1 Q611.4 501.9 616.2 509.6 Q620.9 517.2 625.9 524.7 Q630.8 532.2 636.0 539.6 Q641.2 546.9 646.7 554.1 Q652.1 561.3 657.7 568.3 Q663.4 575.3 669.2 582.2 Q675.1 589.0 681.1 595.6 Q687.2 602.3 693.5 608.7 Q699.7 615.2 706.2 621.4 Q712.7 627.7 719.4 633.7 Q726.0 639.8 732.9 645.6 Q739.7 651.4 746.8 657.1 Q753.8 662.7 761.1 668.0 Q768.3 673.4 775.7 678.5 Q783.1 683.7 790.6 688.6 Q798.2 693.4 805.9 698.1 Q813.6 702.7 821.5 707.1 Q829.3 711.4 837.4 715.5 Q845.4 719.6 853.5 723.5 Q861.7 727.3 869.9 730.8 Q878.2 734.4 886.6 737.6 Q895.0 740.8 903.5 743.8 Q912.0 746.7 920.6 749.4 Q929.2 752.0 937.9 754.4 Q946.6 756.7 955.4 758.7 Q964.1 760.7 973.0 762.5 Q981.8 764.2 990.7 765.6 Q999.6 767.0 1008.5 768.1 Q1017.5 769.2 1026.4 769.9 Q1035.4 770.7 1044.4 771.2 Q1053.4 771.6 1062.4 771.8 Q1071.4 771.9 1080.4 771.8 Q1089.4 771.7 1098.4 771.2 Q1107.3 770.8 1116.3 770.1 Q1125.3 769.4 1134.2 768.4 Q1143.2 767.4 1152.1 766.2 Q1161.0 764.9 1169.9 763.4 Q1178.8 761.9 1187.6 760.1 Q1196.4 758.4 1205.2 756.4 Q1214.0 754.5 1222.7 752.3 Q1231.4 750.1 1240.1 747.7 T1248.8 745.3" stroke-width="0.90"/>
<path d="M104.8 -40.0 Q113.4 -24.2 117.5 -16.2 Q121.6 -8.1 125.5 -0.0 Q129.4 8.1 133.1 16.3 Q136.8 24.5 140.3 32.8 Q143.9 41.0 147.3 49.4 Q150.7 57.7 154.0 66.1 Q157.3 74.4 160.5 82.8 Q163.7 91.3 166.8 99.7 Q170.0 108.1 173.0 116.6 Q176.1 125.1 179.1 133.6 Q182.1 142.0 185.0 150.5 Q188.0 159.0 191.0 167.5 Q193.9 176.0 196.9 184.5 Q199.8 193.0 202.8 201.5 Q205.8 210.0 208.8 218.5 Q211.8 227.0 214.8 235.5 Q217.9 243.9 221.0 252.4 Q224.0 260.8 227.2 269.3 Q230.3 277.7 233.6 286.1 Q236.8 294.5 240.1 302.9 Q243.4 311.3 246.8 319.6 Q250.2 327.9 253.6 336.2 Q257.1 344.5 260.7 352.8 Q264.3 361.1 267.9 369.3 Q271.6 377.5 275.4 385.7 Q279.2 393.8 283.1 401.9 Q286.9 410.1 290.9 418.1 Q294.9 426.2 299.0 434.2 Q303.1 442.2 307.3 450.2 Q311.5 458.1 315.8 466.0 Q320.2 473.9 324.6 481.8 Q329.0 489.6 333.6 497.4 Q338.1 505.2 342.7 512.9 Q347.4 520.6 352.1 528.2 Q356.8 535.9 361.7 543.5 Q366.5 551.0 371.5 558.6 Q376.4 566.1 381.5 573.5 Q386.5 581.0 391.7 588.4 Q396.8 595.8 402.1 603.1 Q407.3 610.4 412.6 617.6 Q418.0 624.9 423.4 632.1 Q428.8 639.3 434.3 646.4 Q439.8 653.5 445.4 660.5 Q451.0 667.6 456.7 674.6 Q462.4 681.5 468.2 688.4 Q473.9 695.3 479.8 702.2 Q485.6 709.0 491.6 715.8 Q497.5 722.6 503.5 729.3 Q509.5 735.9 515.6 742.6 Q521.7 749.2 527.9 755.7 Q534.1 762.3 540.3 768.8 Q546.6 775.2 552.9 781.6 Q559.2 788.0 565.7 794.3 Q572.1 800.7 578.6 806.9 Q585.0 813.1 591.6 819.3 Q598.2 825.4 604.8 831.5 Q611.5 837.6 618.2 843.6 Q624.9 849.5 631.7 855.4 Q638.5 861.3 645.4 867.1 Q652.3 872.9 659.3 878.6 Q666.3 884.3 673.3 889.8 Q680.4 895.4 687.5 900.9 Q694.7 906.4 701.9 911.8 Q709.1 917.1 716.4 922.4 Q723.7 927.6 731.1 932.7 Q738.5 937.9 746.0 942.9 Q753.5 947.9 761.1 952.7 T768.7 957.6" stroke-width="0.71"/>
<path d="M388.6 -40.0 Q390.3 -22.1 391.1 -13.1 Q391.8 -4.1 392.5 4.8 Q393.2 13.8 393.8 22.8 Q394.4 31.8 395.0 40.7 Q395.6 49.7 396.1 58.7 Q396.7 67.7 397.2 76.7 Q397.8 85.7 398.4 94.6 Q398.9 103.6 399.5 112.6 Q400.1 121.6 400.8 130.6 Q401.5 139.5 402.2 148.5 Q402.9 157.5 403.7 166.4 Q404.5 175.4 405.4 184.4 Q406.4 193.3 407.4 202.2 Q408.4 211.2 409.6 220.1 Q410.7 229.0 412.0 237.9 Q413.3 246.9 414.8 255.7 Q416.2 264.6 417.8 273.5 Q419.4 282.3 421.2 291.2 Q423.0 300.0 424.9 308.8 Q426.9 317.5 429.0 326.3 Q431.2 335.0 433.5 343.7 Q435.8 352.4 438.4 361.0 Q440.9 369.7 443.6 378.3 Q446.3 386.8 449.3 395.4 Q452.2 403.9 455.3 412.3 Q458.4 420.7 461.8 429.1 Q465.1 437.5 468.6 445.8 Q472.1 454.0 475.8 462.2 Q479.6 470.4 483.5 478.5 Q487.4 486.6 491.5 494.6 Q495.6 502.6 499.9 510.5 Q504.2 518.5 508.7 526.2 Q513.2 534.0 517.9 541.7 Q522.6 549.4 527.4 557.0 Q532.3 564.6 537.3 572.0 Q542.4 579.5 547.6 586.8 Q552.8 594.2 558.2 601.4 Q563.6 608.6 569.1 615.7 Q574.7 622.8 580.4 629.7 Q586.1 636.7 592.0 643.5 Q597.8 650.3 603.9 657.0 Q609.9 663.7 616.1 670.2 Q622.2 676.8 628.6 683.2 Q634.9 689.6 641.4 695.8 Q647.9 702.0 654.5 708.1 Q661.1 714.2 667.9 720.1 Q674.7 726.1 681.6 731.8 Q688.5 737.6 695.6 743.2 Q702.6 748.8 709.8 754.2 Q717.0 759.6 724.3 764.8 Q731.7 770.0 739.1 775.1 Q746.6 780.1 754.2 785.0 Q761.8 789.8 769.5 794.4 Q777.2 799.1 785.0 803.5 Q792.9 807.9 800.8 812.1 Q808.8 816.3 816.9 820.3 Q824.9 824.3 833.1 828.0 Q841.3 831.7 849.6 835.2 Q857.9 838.7 866.3 842.0 Q874.7 845.2 883.2 848.2 Q891.7 851.2 900.2 853.9 Q908.8 856.6 917.5 859.1 Q926.1 861.5 934.9 863.7 Q943.6 865.8 952.4 867.7 Q961.2 869.6 970.1 871.2 Q978.9 872.8 987.8 874.1 Q996.7 875.4 1005.7 876.4 Q1014.6 877.4 1023.6 878.1 Q1032.6 878.8 1041.6 879.2 Q1050.6 879.6 1059.6 879.8 Q1068.6 879.9 1077.6 879.7 Q1086.6 879.5 1095.5 879.1 Q1104.5 878.6 1113.5 877.9 Q1122.5 877.1 1131.4 876.1 Q1140.4 875.1 1149.3 873.8 Q1158.2 872.5 1167.0 871.0 Q1175.9 869.5 1184.7 867.7 Q1193.5 865.9 1202.3 863.8 Q1211.1 861.8 1219.8 859.6 Q1228.5 857.3 1237.2 854.8 T1245.8 852.3" stroke-width="0.75"/>
<path d="M336.8 -40.0 Q339.4 -22.2 340.6 -13.3 Q341.7 -4.3 342.8 4.6 Q343.9 13.5 344.9 22.5 Q346.0 31.4 346.9 40.4 Q347.9 49.3 348.8 58.3 Q349.7 67.2 350.6 76.2 Q351.5 85.1 352.5 94.1 Q353.4 103.0 354.3 112.0 Q355.2 120.9 356.2 129.9 Q357.2 138.8 358.2 147.8 Q359.2 156.7 360.3 165.6 Q361.4 174.6 362.6 183.5 Q363.8 192.4 365.1 201.3 Q366.4 210.2 367.8 219.1 Q369.2 228.0 370.7 236.9 Q372.2 245.7 373.9 254.6 Q375.5 263.4 377.3 272.3 Q379.1 281.1 381.1 289.9 Q383.0 298.6 385.2 307.4 Q387.3 316.1 389.6 324.8 Q391.9 333.5 394.3 342.2 Q396.8 350.9 399.4 359.5 Q402.1 368.1 404.9 376.6 Q407.7 385.2 410.7 393.6 Q413.7 402.1 416.9 410.5 Q420.1 419.0 423.5 427.3 Q426.8 435.7 430.4 443.9 Q433.9 452.2 437.7 460.4 Q441.4 468.6 445.3 476.7 Q449.2 484.8 453.3 492.8 Q457.4 500.8 461.7 508.7 Q465.9 516.7 470.4 524.5 Q474.8 532.3 479.4 540.1 Q484.0 547.8 488.8 555.4 Q493.5 563.1 498.5 570.6 Q503.4 578.1 508.5 585.5 Q513.6 593.0 518.8 600.3 Q524.1 607.6 529.5 614.8 Q534.8 622.0 540.4 629.1 Q545.9 636.2 551.6 643.2 Q557.3 650.1 563.1 657.0 Q569.0 663.9 574.9 670.6 Q580.9 677.3 587.0 683.9 Q593.1 690.6 599.4 697.0 Q605.6 703.5 612.0 709.9 Q618.4 716.2 624.9 722.4 Q631.4 728.7 638.0 734.7 Q644.6 740.8 651.4 746.8 Q658.2 752.7 665.1 758.5 Q671.9 764.3 679.0 769.9 Q686.0 775.5 693.1 781.0 Q700.3 786.5 707.5 791.8 Q714.8 797.1 722.2 802.3 Q729.6 807.4 737.1 812.4 Q744.6 817.4 752.2 822.2 Q759.8 826.9 767.5 831.5 Q775.3 836.1 783.1 840.5 Q791.0 844.9 799.0 849.1 Q806.9 853.3 815.0 857.3 Q823.1 861.3 831.2 865.0 Q839.4 868.8 847.7 872.3 Q856.0 875.8 864.4 879.1 Q872.7 882.4 881.2 885.4 Q889.7 888.5 898.2 891.3 Q906.8 894.0 915.4 896.6 Q924.1 899.1 932.8 901.4 Q941.5 903.6 950.3 905.6 Q959.1 907.6 967.9 909.3 Q976.7 911.0 985.6 912.5 Q994.5 913.9 1003.4 915.0 Q1012.3 916.2 1021.3 917.0 Q1030.3 917.9 1039.2 918.5 Q1048.2 919.0 1057.2 919.3 Q1066.2 919.6 1075.2 919.6 Q1084.2 919.6 1093.2 919.3 Q1102.2 919.0 1111.2 918.4 Q1120.2 917.8 1129.1 917.0 Q1138.1 916.1 1147.0 915.0 Q1156.0 913.9 1164.9 912.5 Q1173.7 911.2 1182.6 909.5 Q1191.4 907.9 1200.2 906.0 Q1209.1 904.2 1217.8 902.0 Q1226.6 899.9 1235.2 897.6 T1243.9 895.3" stroke-width="1.03"/>
<path d="M284.5 -40.0 Q288.2 -22.4 290.0 -13.6 Q291.7 -4.7 293.3 4.1 Q294.9 13.0 296.4 21.9 Q297.9 30.7 299.4 39.6 Q300.8 48.5 302.2 57.4 Q303.6 66.3 304.9 75.2 Q306.3 84.1 307.6 93.0 Q308.9 101.9 310.3 110.8 Q311.6 119.7 313.0 128.6 Q314.3 137.5 315.7 146.4 Q317.1 155.3 318.6 164.1 Q320.0 173.0 321.5 181.9 Q323.0 190.8 324.6 199.6 Q326.3 208.5 327.9 217.3 Q329.6 226.2 331.4 235.0 Q333.2 243.8 335.2 252.6 Q337.1 261.4 339.1 270.1 Q341.2 278.9 343.4 287.6 Q345.6 296.4 347.9 305.1 Q350.2 313.8 352.7 322.4 Q355.2 331.1 357.8 339.7 Q360.5 348.3 363.3 356.8 Q366.1 365.4 369.0 373.9 Q372.0 382.4 375.1 390.8 Q378.2 399.3 381.5 407.6 Q384.8 416.0 388.2 424.3 Q391.7 432.6 395.3 440.9 Q398.9 449.1 402.7 457.3 Q406.5 465.4 410.4 473.5 Q414.4 481.6 418.5 489.6 Q422.6 497.6 426.9 505.6 Q431.1 513.5 435.6 521.3 Q440.0 529.2 444.6 536.9 Q449.1 544.7 453.9 552.3 Q458.6 560.0 463.4 567.6 Q468.3 575.1 473.3 582.6 Q478.3 590.1 483.5 597.5 Q488.7 604.8 493.9 612.1 Q499.2 619.4 504.7 626.6 Q510.1 633.8 515.6 640.8 Q521.2 647.9 526.9 654.9 Q532.6 661.9 538.4 668.8 Q544.2 675.6 550.1 682.4 Q556.1 689.2 562.1 695.8 Q568.2 702.5 574.3 709.0 Q580.5 715.6 586.8 722.0 Q593.1 728.4 599.5 734.7 Q605.9 741.1 612.5 747.3 Q619.0 753.4 625.6 759.5 Q632.3 765.6 639.0 771.5 Q645.8 777.5 652.7 783.3 Q659.5 789.1 666.5 794.8 Q673.5 800.5 680.6 806.0 Q687.7 811.5 694.9 816.9 Q702.1 822.3 709.4 827.5 Q716.8 832.8 724.2 837.9 Q731.6 842.9 739.2 847.8 Q746.7 852.8 754.3 857.5 Q762.0 862.2 769.8 866.8 Q777.5 871.4 785.4 875.7 Q793.2 880.1 801.2 884.3 Q809.2 888.5 817.3 892.5 Q825.3 896.4 833.5 900.2 Q841.7 904.0 849.9 907.5 Q858.2 911.1 866.6 914.4 Q874.9 917.7 883.4 920.8 Q891.8 923.9 900.4 926.8 Q908.9 929.6 917.5 932.2 Q926.1 934.8 934.8 937.2 Q943.5 939.5 952.3 941.6 Q961.0 943.7 969.8 945.5 Q978.6 947.4 987.5 948.9 Q996.4 950.4 1005.3 951.7 Q1014.2 953.0 1023.1 954.0 Q1032.1 955.0 1041.1 955.7 Q1050.0 956.4 1059.0 956.8 Q1068.0 957.3 1077.0 957.4 Q1086.0 957.6 1095.0 957.5 Q1104.0 957.3 1113.0 956.9 Q1122.0 956.5 1131.0 955.9 Q1139.9 955.2 1148.9 954.3 Q1157.8 953.3 1166.8 952.1 Q1175.7 950.9 1184.6 949.5 Q1193.4 948.0 1202.3 946.3 Q1211.1 944.6 1219.9 942.7 Q1228.7 940.8 1237.4 938.6 T1246.2 936.5" stroke-width="0.65"/>
<path d="M362.5 -40.0 Q364.6 -22.1 365.6 -13.2 Q366.6 -4.2 367.4 4.7 Q368.3 13.7 369.1 22.6 Q369.9 31.6 370.7 40.6 Q371.4 49.5 372.2 58.5 Q372.9 67.5 373.6 76.5 Q374.3 85.4 375.1 94.4 Q375.8 103.4 376.6 112.3 Q377.3 121.3 378.1 130.3 Q378.9 139.2 379.8 148.2 Q380.7 157.2 381.6 166.1 Q382.6 175.1 383.6 184.0 Q384.6 192.9 385.8 201.9 Q386.9 210.8 388.2 219.7 Q389.5 228.6 390.9 237.5 Q392.3 246.4 393.8 255.3 Q395.4 264.1 397.1 273.0 Q398.8 281.8 400.6 290.6 Q402.5 299.4 404.5 308.2 Q406.6 316.9 408.8 325.7 Q411.0 334.4 413.4 343.1 Q415.8 351.7 418.3 360.4 Q420.9 369.0 423.7 377.5 Q426.5 386.1 429.4 394.6 Q432.4 403.1 435.5 411.5 Q438.7 420.0 442.0 428.3 Q445.3 436.7 448.9 445.0 Q452.4 453.2 456.1 461.4 Q459.8 469.6 463.8 477.7 Q467.7 485.9 471.8 493.9 Q475.9 501.9 480.1 509.8 Q484.4 517.7 488.9 525.5 Q493.3 533.4 498.0 541.1 Q502.6 548.8 507.4 556.4 Q512.2 564.0 517.2 571.5 Q522.2 579.0 527.3 586.4 Q532.4 593.8 537.7 601.0 Q543.1 608.3 548.5 615.5 Q554.0 622.6 559.6 629.7 Q565.2 636.7 571.0 643.6 Q576.8 650.5 582.7 657.3 Q588.6 664.1 594.7 670.7 Q600.7 677.3 606.9 683.9 Q613.2 690.4 619.5 696.7 Q625.9 703.1 632.4 709.4 Q638.9 715.6 645.5 721.7 Q652.1 727.8 658.9 733.7 Q665.6 739.6 672.5 745.4 Q679.4 751.2 686.5 756.8 Q693.5 762.4 700.7 767.9 Q707.8 773.3 715.1 778.6 Q722.4 783.9 729.8 789.0 Q737.3 794.1 744.8 799.0 Q752.3 803.9 760.0 808.6 Q767.7 813.3 775.5 817.8 Q783.2 822.3 791.1 826.6 Q799.0 830.9 807.1 835.0 Q815.1 839.1 823.2 843.0 Q831.3 846.9 839.6 850.5 Q847.8 854.1 856.1 857.5 Q864.5 860.9 872.9 864.1 Q881.3 867.2 889.9 870.1 Q898.4 873.0 907.0 875.6 Q915.6 878.2 924.3 880.6 Q933.0 882.9 941.7 885.0 Q950.5 887.1 959.3 888.9 Q968.1 890.7 977.0 892.2 Q985.9 893.7 994.8 895.0 Q1003.7 896.2 1012.7 897.1 Q1021.6 898.1 1030.6 898.7 Q1039.6 899.3 1048.6 899.7 Q1057.5 900.0 1066.5 900.1 Q1075.5 900.2 1084.5 899.9 Q1093.5 899.7 1102.5 899.2 Q1111.5 898.7 1120.5 897.9 Q1129.4 897.1 1138.4 896.0 Q1147.3 895.0 1156.2 893.6 Q1165.1 892.3 1174.0 890.7 Q1182.8 889.2 1191.7 887.3 Q1200.5 885.5 1209.2 883.4 Q1218.0 881.4 1226.7 879.1 Q1235.4 876.8 1244.0 874.3 T1252.7 871.7" stroke-width="0.74"/>
<path d="M153.3 -40.0 Q160.4 -23.5 163.8 -15.2 Q167.2 -6.8 170.5 1.6 Q173.7 10.0 176.7 18.4 Q179.8 26.9 182.8 35.4 Q185.7 43.9 188.5 52.5 Q191.3 61.0 194.1 69.6 Q196.8 78.2 199.4 86.8 Q202.1 95.4 204.7 104.0 Q207.3 112.6 209.8 121.2 Q212.4 129.9 214.9 138.5 Q217.4 147.1 220.0 155.8 Q222.5 164.4 225.0 173.0 Q227.6 181.7 230.1 190.3 Q232.7 198.9 235.3 207.6 Q237.9 216.2 240.5 224.8 Q243.2 233.4 245.9 242.0 Q248.6 250.5 251.4 259.1 Q254.2 267.6 257.1 276.2 Q260.0 284.7 262.9 293.2 Q265.9 301.7 269.0 310.2 Q272.0 318.6 275.2 327.0 Q278.4 335.5 281.6 343.8 Q284.9 352.2 288.3 360.6 Q291.7 368.9 295.2 377.2 Q298.7 385.5 302.4 393.7 Q306.0 401.9 309.8 410.1 Q313.5 418.3 317.4 426.4 Q321.3 434.5 325.3 442.6 Q329.3 450.7 333.4 458.7 Q337.5 466.7 341.8 474.6 Q346.0 482.5 350.4 490.4 Q354.8 498.3 359.3 506.1 Q363.8 513.9 368.4 521.6 Q373.0 529.3 377.7 537.0 Q382.4 544.6 387.3 552.2 Q392.1 559.8 397.0 567.3 Q402.0 574.9 407.0 582.3 Q412.1 589.7 417.3 597.1 Q422.4 604.5 427.7 611.8 Q433.0 619.1 438.3 626.3 Q443.7 633.5 449.2 640.7 Q454.6 647.8 460.2 654.9 Q465.8 662.0 471.4 669.0 Q477.1 676.0 482.9 682.9 Q488.6 689.8 494.5 696.6 Q500.3 703.5 506.3 710.2 Q512.2 717.0 518.2 723.7 Q524.3 730.4 530.4 737.0 Q536.5 743.6 542.7 750.1 Q548.9 756.6 555.2 763.0 Q561.5 769.5 567.9 775.8 Q574.3 782.1 580.7 788.4 Q587.2 794.7 593.8 800.8 Q600.3 807.0 607.0 813.1 Q613.6 819.1 620.3 825.1 Q627.1 831.1 633.9 836.9 Q640.7 842.8 647.6 848.6 Q654.5 854.3 661.5 860.0 Q668.5 865.7 675.6 871.2 Q682.7 876.8 689.9 882.2 Q697.1 887.6 704.3 892.9 Q711.6 898.2 719.0 903.4 Q726.3 908.6 733.8 913.6 Q741.2 918.7 748.8 923.6 Q756.3 928.5 764.0 933.2 Q771.6 938.0 779.3 942.6 Q787.1 947.2 794.9 951.7 T802.7 956.1" stroke-width="0.71"/>
<path d="M260.5 -40.0 Q264.8 -22.5 266.8 -13.7 Q268.8 -5.0 270.6 3.8 Q272.5 12.6 274.3 21.5 Q276.1 30.3 277.7 39.1 Q279.4 48.0 281.0 56.8 Q282.7 65.7 284.2 74.5 Q285.8 83.4 287.4 92.3 Q288.9 101.1 290.5 110.0 Q292.0 118.9 293.6 127.7 Q295.1 136.6 296.7 145.4 Q298.3 154.3 299.9 163.2 Q301.5 172.0 303.2 180.9 Q304.9 189.7 306.7 198.5 Q308.4 207.3 310.3 216.2 Q312.1 225.0 314.1 233.7 Q316.0 242.5 318.1 251.3 Q320.1 260.1 322.3 268.8 Q324.5 277.5 326.8 286.2 Q329.1 294.9 331.5 303.6 Q334.0 312.3 336.5 320.9 Q339.1 329.5 341.8 338.1 Q344.6 346.7 347.4 355.2 Q350.3 363.7 353.4 372.2 Q356.4 380.7 359.6 389.1 Q362.8 397.5 366.1 405.8 Q369.4 414.2 372.9 422.5 Q376.5 430.8 380.1 439.0 Q383.8 447.2 387.6 455.4 Q391.4 463.5 395.4 471.6 Q399.3 479.7 403.5 487.7 Q407.6 495.7 411.9 503.6 Q416.2 511.5 420.6 519.4 Q425.0 527.2 429.6 534.9 Q434.1 542.7 438.9 550.4 Q443.6 558.0 448.4 565.6 Q453.3 573.2 458.3 580.7 Q463.3 588.2 468.4 595.6 Q473.5 603.0 478.8 610.3 Q484.0 617.6 489.4 624.8 Q494.8 632.0 500.3 639.1 Q505.8 646.2 511.4 653.3 Q517.1 660.3 522.8 667.2 Q528.6 674.1 534.4 680.9 Q540.3 687.8 546.3 694.5 Q552.3 701.2 558.4 707.8 Q564.5 714.4 570.7 721.0 Q576.9 727.5 583.2 733.9 Q589.6 740.3 596.0 746.6 Q602.4 752.8 609.0 759.0 Q615.5 765.2 622.2 771.3 Q628.8 777.3 635.6 783.3 Q642.4 789.2 649.2 795.0 Q656.1 800.8 663.1 806.5 Q670.1 812.2 677.2 817.7 Q684.2 823.3 691.4 828.7 Q698.6 834.1 705.9 839.4 Q713.2 844.6 720.6 849.7 Q728.1 854.8 735.6 859.8 Q743.1 864.7 750.7 869.5 Q758.3 874.3 766.1 878.9 Q773.8 883.6 781.6 888.0 Q789.4 892.4 797.4 896.7 Q805.3 900.9 813.3 905.0 Q821.4 909.0 829.5 912.9 Q837.6 916.8 845.9 920.4 Q854.1 924.1 862.4 927.5 Q870.7 930.9 879.1 934.1 Q887.5 937.3 896.0 940.3 Q904.5 943.3 913.1 946.0 Q921.7 948.7 930.3 951.2 Q939.0 953.7 947.7 955.9 T956.4 958.1" stroke-width="0.61"/>
</g>
<g fill="#fff">
<circle cx="-40.0" cy="70.6" r="2.19"/>
<circle cx="6.1" cy="125.9" r="2.46"/>
<circle cx="48.1" cy="184.4" r="1.95"/>
<circle cx="87.4" cy="244.7" r="2.25"/>
<circle cx="125.4" cy="305.8" r="2.44"/>
<circle cx="163.4" cy="367.0" r="1.64"/>
<circle cx="202.1" cy="427.7" r="1.73"/>
<circle cx="242.2" cy="487.5" r="2.33"/>
<circle cx="283.7" cy="546.3" r="2.35"/>
<circle cx="327.0" cy="603.9" r="2.18"/>
<circle cx="371.8" cy="660.2" r="1.74"/>
<circle cx="418.1" cy="715.3" r="1.97"/>
<circle cx="466.0" cy="769.1" r="2.38"/>
<circle cx="515.3" cy="821.6" r="2.40"/>
<circle cx="566.0" cy="872.7" r="2.32"/>
<circle cx="618.4" cy="922.1" r="1.78"/>
<circle cx="-40.0" cy="772.8" r="2.37"/>
<circle cx="25.5" cy="802.6" r="1.94"/>
<circle cx="87.7" cy="838.8" r="2.24"/>
<circle cx="146.3" cy="880.6" r="1.72"/>
<circle cx="201.2" cy="927.2" r="2.47"/>
<circle cx="312.4" cy="-40.0" r="2.14"/>
<circle cx="323.4" cy="31.1" r="2.25"/>
<circle cx="332.4" cy="102.6" r="1.79"/>
<circle cx="341.8" cy="174.0" r="2.16"/>
<circle cx="353.7" cy="245.0" r="2.12"/>
<circle cx="369.7" cy="315.2" r="2.13"/>
<circle cx="390.7" cy="384.0" r="1.92"/>
<circle cx="417.2" cy="450.9" r="2.25"/>
<circle cx="449.3" cy="515.4" r="1.91"/>
<circle cx="486.6" cy="576.9" r="1.87"/>
<circle cx="528.7" cy="635.3" r="1.75"/>
<circle cx="575.3" cy="690.2" r="2.22"/>
<circle cx="626.0" cy="741.3" r="1.70"/>
<circle cx="680.6" cy="788.2" r="1.80"/>
<circle cx="739.0" cy="830.2" r="1.66"/>
<circle cx="801.1" cy="866.7" r="2.18"/>
<circle cx="866.5" cy="896.5" r="2.10"/>
<circle cx="934.9" cy="918.9" r="2.09"/>
<circle cx="1005.6" cy="932.7" r="1.63"/>
<circle cx="1077.3" cy="937.6" r="2.00"/>
<circle cx="1149.2" cy="933.5" r="1.91"/>
<circle cx="1220.0" cy="921.0" r="1.68"/>
<circle cx="520.8" cy="-40.0" r="1.60"/>
<circle cx="522.2" cy="32.0" r="2.50"/>
<circle cx="523.0" cy="104.0" r="1.71"/>
<circle cx="525.6" cy="175.9" r="1.87"/>
<circle cx="532.4" cy="247.6" r="1.84"/>
<circle cx="544.9" cy="318.5" r="2.14"/>
<circle cx="564.6" cy="387.7" r="1.67"/>
<circle cx="592.0" cy="454.2" r="2.02"/>
<circle cx="627.3" cy="516.9" r="1.93"/>
<circle cx="670.1" cy="574.8" r="2.35"/>
<circle cx="719.8" cy="626.8" r="1.61"/>
</g>
</svg>