<?xml version="1.0" encoding="UTF-8" standalone="no"?>
<!-- Created with Inkscape (http://www.inkscape.org/) -->
<svg
   xmlns:svg="http://www.w3.org/2000/svg"
   xmlns="http://www.w3.org/2000/svg"
   version="1.0"
   width="190"
   height="33"
   id="svg2">
  <defs
     id="defs4" />
  <g
     transform="translate(-93.3392,-68.70093)"
     id="layer1">
    <path
       d="M 122.4742,90.526261 L 117.0817,85.131261 L 121.06795,81.145011 L 131.86795,81.127511 L 122.4742,90.526261 z"
       id="path2508"
       style="fill:#39b54a;fill-rule:nonzero" />
    <path
       d="M 109.2192,69.231261 L 93.3392,85.108761 L 109.2392,85.108761 L 125.11795,69.231261 L 109.2192,69.231261 z"
       id="path2510"
       style="fill:#39b54a;fill-rule:nonzero" />
    <path
       d="M 109.2392,85.108761 L 125.11795,100.98752 L 109.2192,100.98752 L 93.3392,85.108761 L 109.2392,85.108761 z"
       id="path2512"
       style="fill:#231f20;fill-rule:nonzero" />
    <path
       d="M 140.09375,81.092831 L 140.09375,93.374081 L 143.28125,93.374081 L 143.28125,88.655331 L 148.34375,88.655331 L 148.34375,86.155331 L 143.28125,86.155331 L 143.28125,83.655331 L 149.125,83.655331 L 149.125,81.092831 L 140.09375,81.092831 z M 151,81.092831 L 151,93.374081 L 153.9375,93.374081 L 153.9375,81.092831 L 151,81.092831 z M 185.125,81.092831 L 185.125,93.374081 L 188.03125,93.374081 L 188.03125,88.499081 C 188.03125,87.519081 188.52375,86.592831 189.625,86.592831 C 191.22375,86.592831 191.09375,87.841584 191.09375,89.061581 L 191.09375,93.374081 L 194,93.374081 L 194,87.655331 C 194,86.365331 193.75375,84.186583 190.78125,84.186581 C 189.7125,84.186581 188.51,84.742829 188.0625,85.655331 L 188.03125,85.655331 L 188.03125,81.092831 L 185.125,81.092831 z M 168.03125,81.749081 L 168.03125,84.436581 L 166.53125,84.436581 L 166.53125,86.342831 L 168.03125,86.342831 L 168.03125,90.311581 C 168.03125,92.737831 168.6625,93.467828 171.15625,93.467831 C 171.68875,93.467831 172.21376,93.390327 172.75,93.374081 L 172.75,91.217831 C 172.49,91.217831 172.23875,91.249083 172,91.249081 C 171.36125,91.249081 170.9375,91.109084 170.9375,90.405331 L 170.9375,86.342831 L 172.75,86.342831 L 172.75,84.436581 L 170.9375,84.436581 L 170.9375,81.749081 L 168.03125,81.749081 z M 160.8125,84.186581 C 158.18251,84.186583 156,86.139081 156,88.874081 C 156,91.866583 157.96875,93.624081 160.875,93.624081 C 162.87,93.624084 164.77875,92.721581 165.3125,90.655331 L 162.59375,90.655331 C 162.3175,91.311584 161.61125,91.655331 160.90625,91.655331 C 159.6675,91.655327 158.9875,90.846581 158.9375,89.624081 L 165.46875,89.624081 C 165.60625,86.597829 164.01,84.186581 160.8125,84.186581 z M 178.75,84.186581 C 175.87625,84.186581 174.0625,86.222834 174.0625,89.061581 C 174.0625,91.797831 176.06501,93.624084 178.75,93.624081 C 181.12125,93.624081 182.95875,92.265328 183.21875,89.874081 L 180.375,89.874081 C 180.2375,90.819081 179.73251,91.405328 178.71875,91.405331 C 177.47875,91.405331 176.96875,90.216584 176.96875,89.061581 C 176.96875,87.825331 177.23999,86.436581 178.875,86.436581 C 179.6125,86.436581 180.29501,86.96158 180.3125,87.717831 L 183.125,87.717831 C 182.91875,85.361581 180.96751,84.186583 178.75,84.186581 z M 200.75,84.186581 C 198.11874,84.186583 195.9375,86.139081 195.9375,88.874081 C 195.9375,91.866583 197.935,93.624081 200.84375,93.624081 C 202.84,93.624084 204.74625,92.721581 205.28125,90.655331 L 202.53125,90.655331 C 202.2575,91.311584 201.57875,91.655331 200.875,91.655331 C 199.63625,91.655327 198.9275,90.846581 198.875,89.624081 L 205.4375,89.624081 C 205.57751,86.597829 203.9475,84.186581 200.75,84.186581 z M 212.96875,84.280331 C 211.7125,84.280331 210.71,84.860328 210.28125,85.999081 L 210.25,85.999081 L 210.25,84.436581 L 207.40625,84.436581 L 207.40625,93.374081 L 210.34375,93.374081 L 210.34375,88.936581 C 210.34375,87.816581 211.11376,86.842832 212.5625,86.842831 C 212.95375,86.842831 213.2775,86.895332 213.65625,86.999081 L 213.65625,84.342831 C 213.4325,84.290331 213.19375,84.280332 212.96875,84.280331 z M 160.8125,86.155331 C 161.79251,86.155333 162.51125,87.001581 162.5625,87.999081 L 158.9375,87.999081 C 159.10876,86.914085 159.78125,86.155331 160.8125,86.155331 z M 200.75,86.155331 C 201.72999,86.155333 202.45,87.001581 202.5,87.999081 L 198.875,87.999081 C 199.04624,86.914085 199.71625,86.155331 200.75,86.155331 z"
       id="path2514"
       style="fill:#231f20;fill-rule:nonzero" />
    <path
       d="M 215.46875,81.124081 L 215.46875,93.374081 L 221.375,93.374081 C 224.71001,93.374077 226.125,91.887831 226.125,89.967831 C 226.125,88.307831 225.255,87.137831 223.6875,86.811581 L 223.6875,86.780331 C 224.85999,86.299079 225.53125,85.419081 225.53125,84.186581 C 225.53125,82.147831 224.02625,81.124081 221.71875,81.124081 L 215.46875,81.124081 z M 238.8125,81.124081 L 238.8125,82.999081 L 240.875,82.999081 L 240.875,81.124081 L 238.8125,81.124081 z M 243.59375,81.124081 L 243.59375,93.374081 L 245.65625,93.374081 L 245.65625,81.124081 L 243.59375,81.124081 z M 254.71875,81.124081 L 254.71875,85.655331 L 254.6875,85.655331 C 254.05875,84.676582 252.735,84.280331 251.5625,84.280331 C 249.52499,84.28033 247.53125,85.671581 247.53125,88.874081 C 247.53125,91.530333 248.96625,93.624081 251.90625,93.624081 C 253.07624,93.624081 254.24,93.167831 254.78125,92.155331 L 254.8125,92.155331 L 254.8125,93.374081 L 256.78125,93.374081 L 256.78125,81.124081 L 254.71875,81.124081 z M 259.5,81.124081 L 259.5,82.999081 L 261.5625,82.999081 L 261.5625,81.124081 L 259.5,81.124081 z M 217.71875,82.874081 L 221.40625,82.874081 C 222.6325,82.874083 223.28125,83.329081 223.28125,84.561581 C 223.28125,85.659078 222.48625,86.249081 221.40625,86.249081 L 217.71875,86.249081 L 217.71875,82.874081 z M 269.125,84.280331 C 267.89875,84.280331 266.86376,84.864082 266.25,85.842831 L 266.1875,85.811581 L 266.1875,84.530331 L 264.25,84.530331 L 264.25,93.374081 L 266.3125,93.374081 L 266.3125,88.155331 C 266.3125,86.854081 267.19374,85.811578 268.5625,85.811581 C 269.77125,85.811581 270.33751,86.424082 270.375,87.811581 L 270.375,93.374081 L 272.4375,93.374081 L 272.4375,87.280331 C 272.4375,85.291581 271.14376,84.28033 269.125,84.280331 z M 278.46875,84.280331 C 275.8175,84.28033 274.25,86.335331 274.25,88.717831 C 274.25,91.25283 275.48,93.374081 278.4375,93.374081 C 279.59125,93.374077 280.6425,92.784081 281.21875,91.811581 L 281.25,91.811581 L 281.25,93.155331 C 281.24999,94.612831 280.5025,95.436581 278.84375,95.436581 C 277.79751,95.436578 276.875,95.239081 276.625,94.124081 L 274.5625,94.124081 C 274.74374,96.200333 276.845,96.874081 278.71875,96.874081 C 281.65876,96.874083 283.3125,95.560331 283.3125,92.905331 L 283.3125,84.530331 L 281.25,84.530331 L 281.25,85.717831 L 281.21875,85.717831 C 280.69624,84.724083 279.64,84.280331 278.46875,84.280331 z M 227.96875,84.530331 L 227.96875,90.124081 C 227.96875,92.435331 229.00501,93.624081 231.4375,93.624081 C 232.4675,93.624081 233.5875,93.014084 234.09375,92.124081 L 234.125,92.124081 L 234.125,93.374081 L 236.15625,93.374081 L 236.15625,84.530331 L 234.09375,84.530331 L 234.09375,89.655331 C 234.09375,91.025331 233.525,92.061582 231.8125,92.061581 C 230.69125,92.061581 230,91.497833 230,89.936581 L 230,84.530331 L 227.96875,84.530331 z M 238.8125,84.530331 L 238.8125,93.374081 L 240.875,93.374081 L 240.875,84.530331 L 238.8125,84.530331 z M 259.5,84.530331 L 259.5,93.374081 L 261.5625,93.374081 L 261.5625,84.530331 L 259.5,84.530331 z M 252.21875,85.811581 C 253.805,85.811584 254.78125,86.984081 254.78125,88.936581 C 254.78125,90.477834 254.02625,92.061581 252.1875,92.061581 C 250.40376,92.061582 249.59375,90.554081 249.59375,89.030331 C 249.59376,87.439084 250.2875,85.811581 252.21875,85.811581 z M 278.75,85.811581 C 280.53499,85.811578 281.25,87.226581 281.25,88.749081 C 281.24999,90.25908 280.57125,91.842831 278.75,91.842831 C 277.03624,91.84283 276.3125,90.359081 276.3125,88.905331 C 276.31251,87.430327 276.92875,85.811581 278.75,85.811581 z M 217.71875,87.811581 L 221.6875,87.811581 C 223.05624,87.811582 223.875,88.489081 223.875,89.686581 C 223.875,90.917831 223.05625,91.624081 221.6875,91.624081 L 217.71875,91.624081 L 217.71875,87.811581 z"
       id="path2530"
       style="fill:#39b54a;fill-rule:nonzero" />
  </g>
</svg>
